<svg width="23" height="20" viewBox="0 0 23 20" fill="none" xmlns="http://www.w3.org/2000/svg">
<path d="M7.37879 1.75474L13.2462 5.04614C13.7108 5.30617 14.3023 5.15107 14.5675 4.70172C14.835 4.25237 14.6778 3.6753 14.2131 3.41755L8.34573 0.126149C7.88104 -0.133878 7.28961 0.021226 7.0244 0.470572C6.7592 0.919917 6.91644 1.49243 7.37879 1.75474ZM12.7627 5.86044L6.89532 2.56904L3.50868 8.27139L9.37604 11.5628L12.7627 5.86044ZM2.05592 10.7143L7.92328 14.0057C8.38563 14.2657 8.97941 14.1106 9.24461 13.6613C9.50982 13.2119 9.35257 12.6348 8.89022 12.3771L3.02286 9.08797C2.55817 8.82794 1.96674 8.98305 1.70153 9.43239C1.43164 9.87946 1.59123 10.4565 2.05592 10.7143ZM22.2748 13.3693L11.554 7.89732L10.5847 9.52819L20.8221 15.8145C21.5168 16.2045 22.4039 15.9741 22.8053 15.299C23.2066 14.6215 22.9672 13.7593 22.2748 13.3693ZM11.6479 18.1205C11.6479 17.6004 11.2137 17.1808 10.6809 17.1808H1.96674C1.43164 17.1808 0.999798 17.6004 0.999798 18.1205C0.999798 18.6406 0.999798 19.0603 0.999798 19.0603L0 19.0397L0.0328572 20H12.6148L12.6594 19.099L11.7066 19.0603C11.7089 19.0603 11.6479 18.6383 11.6479 18.1205Z" fill="#585858"/>
</svg>
