<svg width="24" height="24" viewBox="0 0 24 24" fill="none" xmlns="http://www.w3.org/2000/svg">
<circle cx="9" cy="8" r="3" fill="#B4EFE4"/>
<path d="M16 16.5V19H1.5L2 16L4.5 15L8 14.5H11L14 15.5L16 16.5Z" fill="#D9D9D9"/>
<path d="M16 16.5V19H1.5L2 16L4.5 15L8 14.5H11L14 15.5L16 16.5Z" fill="#B4EFE4"/>
<path d="M0.950195 20.0016V17.6516C0.950195 17.0682 1.1002 16.5391 1.4002 16.0641C1.7002 15.5891 2.11686 15.2349 2.6502 15.0016C3.86686 14.4682 4.9627 14.0849 5.9377 13.8516C6.9127 13.6182 7.91686 13.5016 8.9502 13.5016C9.98353 13.5016 10.9835 13.6182 11.9502 13.8516C12.9169 14.0849 14.0085 14.4682 15.2252 15.0016C15.7585 15.2349 16.1794 15.5891 16.4877 16.0641C16.796 16.5391 16.9502 17.0682 16.9502 17.6516V20.0016H0.950195ZM15.5502 13.4266C16.7002 13.5599 17.7835 13.7557 18.8002 14.0141C19.8169 14.2724 20.6419 14.5682 21.2752 14.9016C21.8252 15.2182 22.2585 15.6099 22.5752 16.0766C22.8919 16.5432 23.0502 17.0682 23.0502 17.6516V20.0016H18.4502V17.6516C18.4502 16.6016 18.1835 15.7391 17.6502 15.0641C17.1169 14.3891 16.4169 13.8432 15.5502 13.4266ZM8.9502 11.9766C7.8502 11.9766 6.9502 11.6266 6.2502 10.9266C5.5502 10.2266 5.2002 9.32656 5.2002 8.22656C5.2002 7.12656 5.5502 6.22656 6.2502 5.52656C6.9502 4.82656 7.8502 4.47656 8.9502 4.47656C10.0502 4.47656 10.9502 4.82656 11.6502 5.52656C12.3502 6.22656 12.7002 7.12656 12.7002 8.22656C12.7002 9.32656 12.3502 10.2266 11.6502 10.9266C10.9502 11.6266 10.0502 11.9766 8.9502 11.9766ZM17.9502 8.22656C17.9502 9.32656 17.6002 10.2266 16.9002 10.9266C16.2002 11.6266 15.3002 11.9766 14.2002 11.9766C14.0169 11.9766 13.8127 11.9641 13.5877 11.9391C13.3627 11.9141 13.1585 11.8682 12.9752 11.8016C13.3752 11.3849 13.6794 10.8724 13.8877 10.2641C14.096 9.65573 14.2002 8.97656 14.2002 8.22656C14.2002 7.47656 14.096 6.81406 13.8877 6.23906C13.6794 5.66406 13.3752 5.1349 12.9752 4.65156C13.1585 4.60156 13.3627 4.5599 13.5877 4.52656C13.8127 4.49323 14.0169 4.47656 14.2002 4.47656C15.3002 4.47656 16.2002 4.82656 16.9002 5.52656C17.6002 6.22656 17.9502 7.12656 17.9502 8.22656ZM2.4502 18.5016H15.4502V17.6516C15.4502 17.3849 15.371 17.1266 15.2127 16.8766C15.0544 16.6266 14.8585 16.4516 14.6252 16.3516C13.4252 15.8182 12.4169 15.4599 11.6002 15.2766C10.7835 15.0932 9.9002 15.0016 8.9502 15.0016C8.0002 15.0016 7.1127 15.0932 6.2877 15.2766C5.4627 15.4599 4.4502 15.8182 3.2502 16.3516C3.01686 16.4516 2.8252 16.6266 2.6752 16.8766C2.5252 17.1266 2.4502 17.3849 2.4502 17.6516V18.5016ZM8.9502 10.4766C9.60019 10.4766 10.1377 10.2641 10.5627 9.83906C10.9877 9.41406 11.2002 8.87656 11.2002 8.22656C11.2002 7.57656 10.9877 7.03906 10.5627 6.61406C10.1377 6.18906 9.60019 5.97656 8.9502 5.97656C8.3002 5.97656 7.7627 6.18906 7.3377 6.61406C6.9127 7.03906 6.7002 7.57656 6.7002 8.22656C6.7002 8.87656 6.9127 9.41406 7.3377 9.83906C7.7627 10.2641 8.3002 10.4766 8.9502 10.4766Z" fill="#585858"/>
</svg>
