<svg width="23" height="21" viewBox="0 0 23 21" fill="none" xmlns="http://www.w3.org/2000/svg">
<path d="M7.40828 2.74475L12.9962 6.03336C13.4388 6.29316 14.0021 6.13819 14.2547 5.68923C14.5095 5.24026 14.3597 4.66367 13.9171 4.40615L8.32918 1.11754C7.88661 0.857737 7.32334 1.01271 7.07077 1.46167C6.81819 1.91064 6.96795 2.48267 7.40828 2.74475ZM12.5358 6.84696L6.94783 3.55836L3.72246 9.25587L9.31042 12.5445L12.5358 6.84696ZM2.33888 11.6967L7.92684 14.9853C8.36718 15.2451 8.93268 15.0901 9.18525 14.6412C9.43783 14.1922 9.28807 13.6156 8.84774 13.3581L3.25978 10.0718C2.81721 9.81194 2.25394 9.96692 2.00137 10.4159C1.74432 10.8626 1.89631 11.4392 2.33888 11.6967ZM21.595 14.3494L11.3847 8.88211L10.4615 10.5116L20.2114 16.7925C20.873 17.1822 21.7179 16.9521 22.1002 16.2775C22.4824 15.6006 22.2544 14.7392 21.595 14.3494ZM11.4741 19.0966C11.4741 18.577 11.0606 18.1577 10.5532 18.1577H2.25394C1.74432 18.1577 1.33305 18.577 1.33305 19.0966C1.33305 19.6162 1.33305 20.0356 1.33305 20.0356L0.380859 20.015L0.412152 20.9745H12.395L12.4374 20.0743L11.53 20.0356C11.5322 20.0356 11.4741 19.6139 11.4741 19.0966Z" fill="#0A3066"/>
</svg>
