<svg width="18" height="16" viewBox="0 0 18 16" fill="none" xmlns="http://www.w3.org/2000/svg">
<g opacity="0.7">
<g opacity="0.7">
<g opacity="0.7">
<path opacity="0.7" d="M12.3779 6.41546L9.52235 9.8642C9.44517 9.95745 8.98603 10.4381 8.98603 10.4381C8.85523 10.5957 8.58053 10.7244 8.37646 10.7244C8.58183 10.7244 8.85653 10.5957 8.98603 10.4381C8.98603 10.4381 9.44517 9.95745 9.52235 9.8642L12.3792 6.41546C12.65 6.08845 12.7324 5.61566 12.633 5.19672H12.6317C12.7311 5.61566 12.6487 6.08845 12.3779 6.41546Z" fill="white"/>
</g>
</g>
</g>
<g opacity="0.7">
<g opacity="0.7">
<g opacity="0.7">
<path opacity="0.7" d="M12.3779 6.41546L9.52235 9.8642C9.44517 9.95745 8.98603 10.4381 8.98603 10.4381C8.85523 10.5957 8.58053 10.7244 8.37646 10.7244C8.58183 10.7244 8.85653 10.5957 8.98603 10.4381C8.98603 10.4381 9.44517 9.95745 9.52235 9.8642L12.3792 6.41546C12.65 6.08845 12.7324 5.61566 12.633 5.19672H12.6317C12.7311 5.61566 12.6487 6.08845 12.3779 6.41546Z" fill="white"/>
</g>
</g>
</g>
<g opacity="0.5">
<g opacity="0.5">
<g opacity="0.5">
<path opacity="0.5" d="M7.69446 10.7244H8.37598C8.58135 10.7244 8.85474 10.5957 8.98554 10.4381C8.98554 10.4381 9.44338 9.95876 9.52186 9.8642L12.3774 6.41546C12.6495 6.08845 12.7306 5.61566 12.6312 5.19672H9.57157C9.36751 5.19672 9.09281 5.32542 8.962 5.48433C8.962 5.48433 8.50286 5.96369 8.42568 6.05824L5.56882 9.50567C5.29804 9.834 5.21563 10.3042 5.31505 10.7244H7.69315H7.69446Z" fill="white"/>
</g>
</g>
</g>
<g opacity="0.5">
<g opacity="0.5">
<g opacity="0.5">
<path d="M2.07519 9.81693L4.76855 6.38132C5.12827 5.88227 5.12827 5.06671 4.76855 4.56634L2.07519 1.13204C1.71416 0.632986 1.92215 0.224548 2.53564 0.224548H1.1713C0.557811 0.224548 0.349825 0.632986 0.710857 1.13204L3.40421 4.56765C3.76394 5.06802 3.76394 5.88358 3.40421 6.38264L0.709549 9.81693C0.349825 10.316 0.556503 10.7231 1.17 10.7231H2.53564C1.92084 10.7231 1.71416 10.3147 2.07519 9.81693Z" fill="white"/>
</g>
</g>
</g>
<g opacity="0.7">
<g opacity="0.7">
<path d="M5.56989 9.50568L8.42545 6.05825C8.50263 5.96369 8.96177 5.48433 8.96177 5.48433C9.09258 5.32674 9.36597 5.19672 9.57134 5.19672H12.631C12.5865 5.00892 12.5093 4.83031 12.3903 4.68191L9.50855 1.09658C9.43137 1.00202 8.98139 0.514789 8.98139 0.514789C8.85189 0.355879 8.5798 0.224548 8.37574 0.224548H2.53513C1.92032 0.224548 1.71365 0.632986 2.07468 1.13204L4.76803 4.56765C5.12776 5.0667 5.12776 5.88358 4.76803 6.38264L2.07468 9.81824C1.71365 10.3173 1.92163 10.7244 2.53513 10.7244H5.31612C5.21671 10.3055 5.29781 9.834 5.56989 9.50568Z" fill="white"/>
</g>
</g>
<g opacity="0.5">
<g opacity="0.5">
<g opacity="0.5">
<path d="M14.5446 11.3535C14.1849 10.8544 14.1849 10.0376 14.5446 9.53982L17.238 6.10421C17.599 5.60515 17.391 5.19672 16.7775 5.19672H15.4119C16.0254 5.19672 16.2334 5.60515 15.8736 6.10421L13.179 9.53982C12.8206 10.0376 12.8206 10.8544 13.179 11.3535L15.8736 14.7891C16.2334 15.2882 16.0254 15.6953 15.4119 15.6953H16.7775C17.391 15.6953 17.599 15.2882 17.238 14.7891L14.5446 11.3535Z" fill="white"/>
</g>
</g>
</g>
<g opacity="0.7">
<path opacity="0.7" d="M15.874 14.7891L13.1793 11.3535C12.8209 10.8544 12.8209 10.0389 13.1793 9.53982L15.874 6.10421C16.2337 5.60515 16.0257 5.19672 15.4122 5.19672H12.6339C12.7333 5.61697 12.6509 6.08845 12.3801 6.41415L9.52322 9.86289C9.44604 9.95745 8.9869 10.4368 8.9869 10.4368C8.85609 10.5944 8.58139 10.7231 8.37733 10.7231H5.31641C5.36088 10.9109 5.43806 11.0895 5.55709 11.2379L8.43881 14.8246C8.51468 14.9191 8.96728 15.405 8.96728 15.405C9.09678 15.5653 9.36886 15.6953 9.57292 15.6953H15.4122C16.0257 15.6953 16.2337 15.2868 15.874 14.7891Z" fill="white"/>
</g>
<path d="M7.69446 10.7245H8.37598C8.58135 10.7245 8.85474 10.5958 8.98554 10.4382C8.98554 10.4382 9.44338 9.95882 9.52186 9.86426L12.3774 6.41552C12.6495 6.08851 12.7306 5.61572 12.6312 5.19678H9.57157C9.36751 5.19678 9.09281 5.32548 8.962 5.48439C8.962 5.48439 8.50286 5.96375 8.42568 6.05831L5.56882 9.50573C5.29804 9.83406 5.21563 10.3042 5.31505 10.7245H7.69315H7.69446Z" fill="white"/>
</svg>
