<svg width="127" height="34" viewBox="0 0 127 34" fill="none" xmlns="http://www.w3.org/2000/svg">
<path d="M0 0.102539H2.95711C5.23979 0.102539 6.74428 1.55515 6.74428 3.63032C6.74428 5.70548 5.18791 7.15809 2.95711 7.15809H0V0.102539ZM2.90523 6.22427C4.66912 6.22427 5.75858 5.13481 5.75858 3.57844C5.75858 2.02207 4.66912 0.932604 2.90523 0.932604H0.985703V6.22427H2.90523Z" fill="white" fill-opacity="0.4"/>
<path d="M14.424 6.22525V7.10719H9.33984V0.103516H14.3202V0.98546H10.3774V3.1125H13.9052V3.94257H10.3774V6.22525H14.424Z" fill="white" fill-opacity="0.4"/>
<path d="M16.3936 6.32925L16.7567 5.55106C17.2755 6.01797 18.1574 6.38113 19.0913 6.38113C20.2845 6.38113 20.8552 5.91422 20.8552 5.29167C20.8552 3.57966 16.6011 4.66912 16.6011 2.02328C16.6011 0.933824 17.4311 0 19.2469 0C20.077 0 20.907 0.207516 21.5296 0.622549L21.2183 1.45261C20.5958 1.03758 19.9213 0.881944 19.2988 0.881944C18.1056 0.881944 17.5868 1.40074 17.5868 2.02328C17.5868 3.73529 21.8409 2.64583 21.8409 5.23979C21.8409 6.32925 20.9589 7.26307 19.0913 7.26307C18.0018 7.21119 16.9642 6.84804 16.3936 6.32925Z" fill="white" fill-opacity="0.4"/>
<path d="M28.7933 5.34342H25.058L24.2798 7.10731H23.2422L26.4068 0.0517578H27.3925L30.609 7.10731H29.5714L28.7933 5.34342ZM28.4301 4.56524L26.9256 1.14122L25.4211 4.56524H28.4301Z" fill="white" fill-opacity="0.4"/>
<path d="M37.3527 7.10719L35.8482 4.92827C35.6926 4.92827 35.5369 4.92827 35.3813 4.92827H33.6174V7.05531H32.6836V0.103516H35.4332C37.249 0.103516 38.3903 1.03734 38.3903 2.54183C38.3903 3.63129 37.8196 4.40948 36.8339 4.77263L38.494 7.15907H37.3527V7.10719ZM37.3527 2.54183C37.3527 1.55613 36.6783 0.98546 35.3813 0.98546H33.6693V4.15008H35.3813C36.6783 4.09821 37.3527 3.52754 37.3527 2.54183Z" fill="white" fill-opacity="0.4"/>
<path d="M45.6535 7.10719L44.149 4.92827C43.9934 4.92827 43.8377 4.92827 43.6821 4.92827H41.9182V7.05531H40.9844V0.103516H43.734C45.5497 0.103516 46.6911 1.03734 46.6911 2.54183C46.6911 3.63129 46.1204 4.40948 45.1347 4.77263L46.7948 7.15907H45.6535V7.10719ZM45.6535 2.54183C45.6535 1.55613 44.9791 0.98546 43.6821 0.98546H41.9701V4.15008H43.6821C44.9791 4.09821 45.6535 3.52754 45.6535 2.54183Z" fill="white" fill-opacity="0.4"/>
<path d="M48.7148 3.57966C48.7148 1.50449 50.3231 0 52.4501 0C54.5772 0 56.1854 1.50449 56.1854 3.57966C56.1854 5.65482 54.5772 7.15931 52.4501 7.15931C50.3231 7.21119 48.7148 5.65482 48.7148 3.57966ZM55.1997 3.57966C55.1997 2.02328 54.0584 0.881944 52.4501 0.881944C50.8938 0.881944 49.7005 2.02328 49.7005 3.57966C49.7005 5.13603 50.8419 6.27737 52.4501 6.27737C54.0065 6.32925 55.1997 5.13603 55.1997 3.57966Z" fill="white" fill-opacity="0.4"/>
<path d="M58.7267 0.103516H59.7124V6.22525H63.4996V7.10719H58.6748V0.103516H58.7267Z" fill="white" fill-opacity="0.4"/>
<path d="M65.7306 0.103516H66.7163V6.22525H70.5035V7.10719H65.6787V0.103516H65.7306Z" fill="white" fill-opacity="0.4"/>
<path d="M77.1956 5.34342H73.4603L72.6821 7.10731H71.6445L74.8092 0.0517578H75.7949L79.0114 7.10731H77.9738L77.1956 5.34342ZM76.8324 4.56524L75.3279 1.14122L73.8235 4.56524H76.8324Z" fill="white" fill-opacity="0.4"/>
<path d="M81.0352 0.103516H83.9923C86.2749 0.103516 87.7794 1.55613 87.7794 3.63129C87.7794 5.70646 86.2231 7.15907 83.9923 7.15907H81.0352V0.103516ZM83.9404 6.22525C85.7043 6.22525 86.7937 5.13579 86.7937 3.57941C86.7937 2.02304 85.6524 0.933581 83.9404 0.933581H82.0209V6.22525H83.9404Z" fill="white" fill-opacity="0.4"/>
<path d="M89.8008 3.57966C89.8008 1.50449 91.409 0 93.5361 0C95.6631 0 97.2714 1.50449 97.2714 3.57966C97.2714 5.65482 95.6631 7.15931 93.5361 7.15931C91.3572 7.21119 89.8008 5.65482 89.8008 3.57966ZM96.2857 3.57966C96.2857 2.02328 95.1443 0.881944 93.5361 0.881944C91.9797 0.881944 90.7865 2.02328 90.7865 3.57966C90.7865 5.13603 91.9278 6.27737 93.5361 6.27737C95.0924 6.32925 96.2857 5.13603 96.2857 3.57966Z" fill="white" fill-opacity="0.4"/>
<path d="M109.207 2.54183C109.207 4.04633 108.117 4.98015 106.25 4.98015H104.486V7.10719H103.5V0.103516H106.25C108.117 0.103516 109.207 0.98546 109.207 2.54183ZM108.169 2.54183C108.169 1.55613 107.495 0.98546 106.198 0.98546H104.486V4.15008H106.198C107.547 4.09821 108.169 3.52754 108.169 2.54183Z" fill="white" fill-opacity="0.4"/>
<path d="M111.23 3.57966C111.23 1.50449 112.839 0 114.966 0C117.093 0 118.701 1.50449 118.701 3.57966C118.701 5.65482 117.093 7.15931 114.966 7.15931C112.787 7.21119 111.23 5.65482 111.23 3.57966ZM117.663 3.57966C117.663 2.02328 116.522 0.881944 114.914 0.881944C113.358 0.881944 112.164 2.02328 112.164 3.57966C112.164 5.13603 113.306 6.27737 114.914 6.27737C116.522 6.32925 117.663 5.13603 117.663 3.57966Z" fill="white" fill-opacity="0.4"/>
<path d="M125.908 7.10719L124.404 4.92827C124.248 4.92827 124.093 4.92827 123.937 4.92827H122.173V7.05531H121.188V0.103516H123.937C125.753 0.103516 126.894 1.03734 126.894 2.54183C126.894 3.63129 126.324 4.40948 125.338 4.77263L126.998 7.15907H125.908V7.10719ZM125.908 2.54183C125.908 1.55613 125.234 0.98546 123.937 0.98546H122.225V4.15008H123.937C125.234 4.09821 125.908 3.52754 125.908 2.54183Z" fill="white" fill-opacity="0.4"/>
<path d="M39.8449 22.4113C39.8449 28.2737 36.2652 33.6172 28.7428 33.6172C21.2203 33.6172 17.6406 28.118 17.6406 22.4113C17.6406 15.8227 22.2579 11.0498 28.7946 11.0498C36.2133 11.1017 39.8449 16.549 39.8449 22.4113ZM28.7428 30.4526C34.1382 30.4526 36.369 26.6654 36.369 22.5151C36.369 18.5204 34.0863 14.3701 28.7946 14.2663C23.7624 14.2663 21.0646 17.7422 21.0646 22.5151C21.1684 26.3023 23.3992 30.4526 28.7428 30.4526Z" fill="white" fill-opacity="0.4"/>
<path d="M50.8414 11.4648C58.2601 11.4648 61.6323 16.7565 61.736 22.1001C61.8398 27.5992 58.4677 33.1503 50.8414 33.1503C48.2475 33.1503 45.2385 33.1503 42.6445 33.1503V11.4648H50.8414ZM46.0686 29.83H50.8414C56.1331 29.83 58.3639 25.9391 58.2601 22.1001C58.1564 18.4685 55.9256 14.7851 50.8414 14.7851H46.0686V29.83Z" fill="white" fill-opacity="0.4"/>
<path d="M80.5697 33.1503H64.5391C64.5391 25.9391 64.5391 18.676 64.5391 11.4648H80.4659V14.837H68.015V20.6993H79.999V23.9158H68.015V29.7263H80.5697V33.1503Z" fill="white" fill-opacity="0.4"/>
<path d="M100.021 28.6367H88.2965L86.2733 33.2021H82.5898L92.3431 11.5166H96.1303L105.884 33.2021H102.2L100.021 28.6367ZM94.1589 15.1481L89.5935 25.4721H98.7761L94.1589 15.1481Z" fill="white" fill-opacity="0.4"/>
<path d="M126.639 33.1503H122.592L116.003 25.6278H111.438V33.1503H107.91V11.4648C111.282 11.4648 114.654 11.5167 118.027 11.5167C123.059 11.5167 125.653 14.9407 125.653 18.6242C125.653 21.7369 124.045 24.7459 119.79 25.3684L126.275 32.5796L126.639 33.1503ZM111.386 14.6295V22.5151H117.975C120.88 22.5151 122.125 20.6993 122.125 18.6242C122.125 16.6528 120.88 14.6295 118.027 14.6295H111.386Z" fill="white" fill-opacity="0.4"/>
<path d="M3.4759 11.4648H0V33.1503H3.4759V11.4648Z" fill="white" fill-opacity="0.4"/>
<path d="M8.45834 23.0859L6.22754 25.4205L13.8019 33.1505H18.1597V32.943L8.45834 23.0859Z" fill="white" fill-opacity="0.4"/>
<path d="M17.2775 11.5686V11.4648H12.9716L5.08594 19.8174V24.279L17.2775 11.5686Z" fill="white" fill-opacity="0.4"/>
</svg>
