<svg width="161" height="32" viewBox="0 0 161 32" fill="none" xmlns="http://www.w3.org/2000/svg">
<path d="M57.0792 5.17417L54.5047 18.6655C54.1829 20.2746 53.9601 22.0817 53.9106 23.5917H50.4945L50.6677 21.5371H50.6182C49.5043 23.2204 47.9447 23.864 46.4594 23.864C44.3058 23.864 42.5234 22.1559 42.5234 19.0616C42.5234 14.6552 45.7168 10.5955 50.5192 10.5955C51.0391 10.5955 51.7074 10.6697 52.2521 10.8925L53.3413 5.14941L57.0792 5.17417ZM51.7074 13.8878C51.4104 13.665 50.841 13.4423 50.2222 13.4423C47.9942 13.4423 46.4099 16.0415 46.4099 18.4675C46.4099 20.0023 47.0783 20.8439 48.1675 20.8439C49.232 20.8439 50.544 19.7052 51.0391 17.2792L51.7074 13.8878Z" fill="white"/>
<path d="M67.0557 22.8737C65.5705 23.6164 63.7386 23.8887 62.3276 23.8887C58.6886 23.8887 56.832 21.8093 56.832 18.5169C56.832 14.6551 59.6293 10.6201 64.2337 10.6201C66.8082 10.6201 68.64 12.0559 68.64 14.4076C68.64 17.6505 65.4962 18.8139 60.4215 18.6902C60.4215 19.0615 60.5452 19.6308 60.8175 19.9774C61.3126 20.621 62.1543 20.9676 63.2683 20.9676C64.6298 20.9676 65.818 20.6458 66.8329 20.1754L67.0557 22.8737ZM65.1496 14.4076C65.1496 13.7887 64.6298 13.3431 63.7634 13.3431C62.0305 13.3431 61.0403 14.7789 60.768 15.9671C63.6643 15.9919 65.1249 15.5711 65.1249 14.4323V14.4076H65.1496Z" fill="white"/>
<path d="M78.6653 23.1959C77.8732 23.5919 76.5612 23.8642 75.0511 23.8642C71.9073 23.8642 69.7041 21.9334 69.7041 18.641C69.7041 14.1356 73.145 10.5957 77.9722 10.5957C79.0614 10.5957 80.0021 10.7937 80.5467 11.0165L79.6308 13.8881C79.1852 13.7148 78.6653 13.5663 77.9227 13.5663C75.2492 13.5663 73.6153 15.819 73.6153 18.2202C73.6153 19.953 74.7046 20.8442 76.1156 20.8442C77.2048 20.8442 77.9722 20.5719 78.6406 20.3243L78.6653 23.1959Z" fill="white"/>
<path d="M80.3984 23.5916L81.8342 16.0414C82.2055 14.1105 82.3541 12.0064 82.4778 10.8924H85.7207C85.6464 11.7588 85.5722 12.6005 85.4979 13.4917H85.5722C86.4634 11.8083 87.8744 10.6201 89.632 10.6201C89.8548 10.6201 90.1023 10.6201 90.3251 10.6449L89.6072 14.2838C89.4339 14.2838 89.2111 14.2591 89.0131 14.2591C86.6366 14.2591 85.5227 16.388 85.0523 18.8882L84.1612 23.6164C84.1364 23.5916 80.3984 23.5916 80.3984 23.5916Z" fill="white"/>
<path d="M100.351 22.8737C98.8654 23.6164 97.0335 23.8887 95.6225 23.8887C91.9836 23.8887 90.127 21.8093 90.127 18.5169C90.127 14.6551 92.9242 10.6201 97.5286 10.6201C100.103 10.6201 101.935 12.0559 101.935 14.4076C101.935 17.6505 98.7911 18.8139 93.7164 18.6902C93.7164 19.0615 93.8402 19.6308 94.1125 19.9774C94.6076 20.621 95.474 20.9676 96.5632 20.9676C97.9495 20.9676 99.1129 20.6458 100.128 20.1754L100.351 22.8737ZM98.4445 14.4076C98.4445 13.7887 97.9247 13.3431 97.083 13.3431C95.3502 13.3431 94.36 14.7789 94.0877 15.9671C97.0088 15.9919 98.4445 15.5711 98.4445 14.4323V14.4076Z" fill="white"/>
<path d="M117.481 5.17417L114.906 18.6655C114.584 20.2746 114.361 22.0817 114.312 23.5917H110.896L111.069 21.5371H111.02C109.906 23.2204 108.346 23.864 106.861 23.864C104.707 23.864 102.925 22.1559 102.925 19.0616C102.925 14.6552 106.118 10.5955 110.921 10.5955C111.44 10.5955 112.109 10.6697 112.653 10.8925L113.743 5.14941L117.481 5.17417ZM112.109 13.8878C111.812 13.665 111.242 13.4423 110.624 13.4423C108.396 13.4423 106.811 16.0415 106.811 18.4675C106.811 20.0023 107.48 20.8439 108.569 20.8439C109.633 20.8439 110.945 19.7052 111.44 17.2792L112.109 13.8878Z" fill="white"/>
<path d="M116.862 23.5922L119.288 10.893H123.026L120.6 23.5922H116.862ZM121.59 9.33347C120.576 9.33347 119.808 8.64033 119.808 7.52637C119.833 6.26388 120.823 5.39746 121.962 5.39746C123.051 5.39746 123.818 6.11535 123.818 7.22931C123.818 8.54131 122.803 9.33347 121.59 9.33347Z" fill="white"/>
<path d="M130.65 7.45215L129.982 10.8931H132.68L132.136 13.7151H129.437L128.571 18.0224C128.472 18.5175 128.373 19.1859 128.373 19.6315C128.373 20.2504 128.621 20.6959 129.437 20.6959C129.784 20.6959 130.131 20.6959 130.477 20.6464L130.032 23.5675C129.561 23.7408 128.621 23.8645 127.828 23.8645C125.6 23.8645 124.536 22.7011 124.536 21.1168C124.536 20.4236 124.61 19.7305 124.808 18.7651L125.799 13.7399H124.189L124.709 10.9178H126.343L126.813 8.54136L130.65 7.45215Z" fill="white"/>
<path d="M145.503 15.8434C145.503 20.4973 142.335 23.8887 137.928 23.8887C134.71 23.8887 132.557 21.7845 132.557 18.6407C132.557 14.2343 135.626 10.6201 140.132 10.6201C143.548 10.6201 145.503 12.9471 145.503 15.8434ZM136.418 18.5664C136.418 20.0517 137.136 21.0171 138.448 21.0171C140.503 21.0171 141.642 18.0218 141.642 15.8434C141.642 14.6799 141.147 13.4422 139.636 13.4422C137.483 13.4422 136.394 16.586 136.418 18.5664Z" fill="white"/>
<path d="M146.84 20.2504C147.558 20.6217 148.944 21.1415 150.157 21.1415C151.221 21.1415 151.766 20.6217 151.766 20.0028C151.766 19.3839 151.345 18.9383 150.182 18.369C148.696 17.6511 147.483 16.5866 147.483 15.0023C147.483 12.3783 149.786 10.6455 153.053 10.6455C154.538 10.6455 155.702 10.9426 156.321 11.2891L155.454 13.9131C154.91 13.6656 154.019 13.3438 152.905 13.3438C151.914 13.3438 151.246 13.7894 151.246 14.4577C151.246 14.9776 151.766 15.4232 152.806 15.9183C154.167 16.6114 155.628 17.6263 155.628 19.3839C155.628 22.2802 153.152 23.8893 149.81 23.8645C148.201 23.815 146.666 23.419 145.924 22.8496L146.84 20.2504Z" fill="white"/>
<path d="M159.217 9.20996C160.207 9.20996 160.999 9.97736 160.999 10.9428C160.999 11.9082 160.207 12.6756 159.217 12.6756C158.227 12.6756 157.41 11.9082 157.41 10.9428C157.385 9.97736 158.202 9.20996 159.217 9.20996ZM159.167 9.63079C158.449 9.63079 157.93 10.2002 157.93 10.9428C157.93 11.6607 158.474 12.2548 159.192 12.2548C159.91 12.2548 160.455 11.6607 160.455 10.9428C160.455 10.2002 159.91 9.63079 159.167 9.63079C159.192 9.63079 159.167 9.63079 159.167 9.63079ZM158.969 11.7597H158.474V10.1506C158.573 10.1259 158.845 10.1011 159.167 10.1011C159.539 10.1011 159.687 10.1506 159.811 10.2249C159.91 10.2992 159.984 10.4229 159.984 10.5715C159.984 10.7448 159.836 10.8685 159.613 10.9428V10.9675C159.786 11.0171 159.885 11.1408 159.935 11.3884C159.984 11.6359 160.034 11.7102 160.058 11.7597H159.514C159.464 11.7102 159.44 11.5617 159.39 11.4131C159.365 11.2398 159.266 11.1656 159.118 11.1656H158.969V11.7597ZM158.994 10.8438H159.143C159.341 10.8438 159.44 10.7695 159.44 10.6457C159.44 10.522 159.316 10.4477 159.167 10.4477C159.093 10.4477 159.044 10.4477 158.994 10.4477V10.8438Z" fill="white"/>
<path d="M24.4284 9.15926L18.4872 1.8071C18.3387 1.60906 17.398 0.618869 17.398 0.618869C17.1505 0.272302 16.5811 0 16.1603 0H14.7493H7.9417H1.30742C0.0449307 0 -0.3759 0.841661 0.366742 1.85661L5.91181 8.91171C6.65445 9.92665 6.65445 11.61 5.91181 12.6249L0.366742 19.68C-0.3759 20.695 0.0449307 21.5366 1.30742 21.5366H7.9417H14.7493H16.1603C16.5811 21.5366 17.1505 21.2643 17.4228 20.9425C17.4228 20.9425 18.3634 19.9523 18.5367 19.7543L24.4284 12.6744C25.2205 11.7338 25.2205 10.1247 24.4284 9.15926Z" fill="white"/>
<path d="M28.8839 22.8486C28.1413 21.8336 28.1413 20.1503 28.8839 19.1353L34.429 12.0802C35.1716 11.0653 34.7508 10.2236 33.4883 10.2236H30.6662C31.9287 10.2236 32.3496 11.0653 31.6069 12.0802L26.0619 19.1353C25.3192 20.1503 25.3192 21.8336 26.0619 22.8486L31.6069 29.9037C32.3496 30.9186 31.9287 31.7603 30.6662 31.7603H33.4883C34.7508 31.7603 35.1716 30.9186 34.429 29.9037L28.8839 22.8486Z" fill="white"/>
<path d="M10.3672 19.0364L16.2589 11.9565C16.4074 11.7585 17.3728 10.7683 17.3728 10.7683C17.6451 10.4465 18.2145 10.1742 18.6353 10.1742H20.0464H24.9478C24.8488 9.77812 24.6755 9.43156 24.4279 9.10975L18.4868 1.75759C18.3383 1.55955 17.3976 0.569359 17.3976 0.569359C17.1501 0.272302 16.5807 0 16.1599 0H14.7488H9.52559H4.12905C2.86656 0 2.44573 0.841661 3.18837 1.85661L8.73344 8.91171C9.47608 9.92665 9.47608 11.61 8.73344 12.6249L3.16362 19.68C2.42097 20.695 2.84181 21.5366 4.1043 21.5366H9.50083H9.82264C9.64936 20.695 9.82264 19.7295 10.3672 19.0364Z" fill="white"/>
<path d="M26.062 22.8489C25.3194 21.834 25.3194 20.1506 26.062 19.1109L31.6071 12.0558C32.3497 11.0409 31.9289 10.1992 30.6664 10.1992H26.8542H25.2451H24.9233C25.1213 11.0656 24.9481 12.0311 24.3787 12.6994L18.5118 19.7793C18.3633 19.9773 17.3979 20.9675 17.3979 20.9675C17.1256 21.2893 16.5562 21.5616 16.1354 21.5616H14.7243H9.84766C9.94668 21.9577 10.0952 22.3043 10.3428 22.6261L16.2839 29.9783C16.4324 30.1763 17.3731 31.1665 17.3731 31.1665C17.6454 31.4883 18.19 31.7606 18.6108 31.7606H20.0219H25.2451H26.8294H30.6416C31.9041 31.7606 32.325 30.9189 31.5823 29.904L26.062 22.8489Z" fill="white"/>
<path d="M16.1603 21.5616C16.5811 21.5616 17.1505 21.2893 17.4228 20.9675C17.4228 20.9675 18.3635 19.9773 18.5368 19.7793L24.4284 12.6994C24.973 12.0311 25.171 11.0656 24.973 10.1992H20.0221H18.611C18.1902 10.1992 17.6208 10.4715 17.3485 10.7933C17.3485 10.7933 16.4079 11.7835 16.2346 11.9816L10.3677 19.0367C9.8231 19.705 9.62507 20.6705 9.8231 21.5369H14.7245C14.7493 21.5369 16.1603 21.5369 16.1603 21.5616Z" fill="white"/>
<path d="M24.4284 9.15926L18.4872 1.8071C18.3387 1.60906 17.398 0.618869 17.398 0.618869C17.1505 0.272302 16.5811 0 16.1603 0H14.7493H7.9417H1.30742C0.0449307 0 -0.3759 0.841661 0.366742 1.85661L5.91181 8.91171C6.65445 9.92665 6.65445 11.61 5.91181 12.6249L0.366742 19.68C-0.3759 20.695 0.0449307 21.5366 1.30742 21.5366H7.9417H14.7493H16.1603C16.5811 21.5366 17.1505 21.2643 17.4228 20.9425C17.4228 20.9425 18.3634 19.9523 18.5367 19.7543L24.4284 12.6744C25.2205 11.7338 25.2205 10.1247 24.4284 9.15926Z" fill="#8BC9E0"/>
<path d="M28.8839 22.8486C28.1413 21.8336 28.1413 20.1503 28.8839 19.1353L34.429 12.0802C35.1716 11.0653 34.7508 10.2236 33.4883 10.2236H30.6662C31.9287 10.2236 32.3496 11.0653 31.6069 12.0802L26.0619 19.1353C25.3192 20.1503 25.3192 21.8336 26.0619 22.8486L31.6069 29.9037C32.3496 30.9186 31.9287 31.7603 30.6662 31.7603H33.4883C34.7508 31.7603 35.1716 30.9186 34.429 29.9037L28.8839 22.8486Z" fill="#8BC9E0"/>
<path d="M10.3672 19.0364L16.2589 11.9565C16.4074 11.7585 17.3728 10.7683 17.3728 10.7683C17.6451 10.4465 18.2145 10.1742 18.6353 10.1742H20.0464H24.9478C24.8488 9.77812 24.6755 9.43156 24.4279 9.10975L18.4868 1.75759C18.3383 1.55955 17.3976 0.569359 17.3976 0.569359C17.1501 0.272302 16.5807 0 16.1599 0H14.7488H9.52559H4.12905C2.86656 0 2.44573 0.841661 3.18837 1.85661L8.73344 8.91171C9.47608 9.92665 9.47608 11.61 8.73344 12.6249L3.16362 19.68C2.42097 20.695 2.84181 21.5366 4.1043 21.5366H9.50083H9.82264C9.64936 20.695 9.82264 19.7295 10.3672 19.0364Z" fill="#1D93C1"/>
<path d="M26.062 22.8489C25.3194 21.834 25.3194 20.1506 26.062 19.1109L31.6071 12.0558C32.3497 11.0409 31.9289 10.1992 30.6664 10.1992H26.8542H25.2451H24.9233C25.1213 11.0656 24.9481 12.0311 24.3787 12.6994L18.5118 19.7793C18.3633 19.9773 17.3979 20.9675 17.3979 20.9675C17.1256 21.2893 16.5562 21.5616 16.1354 21.5616H14.7243H9.84766C9.94668 21.9577 10.0952 22.3043 10.3428 22.6261L16.2839 29.9783C16.4324 30.1763 17.3731 31.1665 17.3731 31.1665C17.6454 31.4883 18.19 31.7606 18.6108 31.7606H20.0219H25.2451H26.8294H30.6416C31.9041 31.7606 32.325 30.9189 31.5823 29.904L26.062 22.8489Z" fill="#1D93C1"/>
<path d="M16.1603 21.5616C16.5811 21.5616 17.1505 21.2893 17.4228 20.9675C17.4228 20.9675 18.3635 19.9773 18.5368 19.7793L24.4284 12.6994C24.973 12.0311 25.171 11.0656 24.973 10.1992H20.0221H18.611C18.1902 10.1992 17.6208 10.4715 17.3485 10.7933C17.3485 10.7933 16.4079 11.7835 16.2346 11.9816L10.3677 19.0367C9.8231 19.705 9.62507 20.6705 9.8231 21.5369H14.7245C14.7493 21.5369 16.1603 21.5369 16.1603 21.5616Z" fill="#1758A5"/>
</svg>
