<svg id="Capa_1" data-name="Capa 1" xmlns="http://www.w3.org/2000/svg" xmlns:xlink="http://www.w3.org/1999/xlink" viewBox="0 0 104 60"><defs><style>.cls-1{fill:#0a3066;}.cls-2{fill:url(#Degradado_sin_nombre_28);}</style><linearGradient id="Degradado_sin_nombre_28" x1="0.75" y1="16.72" x2="25.21" y2="16.72" gradientUnits="userSpaceOnUse"><stop offset="0" stop-color="#0a3066"/><stop offset="0.26" stop-color="#0c3268"/><stop offset="0.41" stop-color="#133b6d"/><stop offset="0.53" stop-color="#204976"/><stop offset="0.64" stop-color="#325d83"/><stop offset="0.73" stop-color="#497694"/><stop offset="0.82" stop-color="#6596a9"/><stop offset="0.91" stop-color="#87bcc2"/><stop offset="0.99" stop-color="#ade7de"/><stop offset="1" stop-color="#b4efe4"/></linearGradient></defs><path class="cls-1" d="M48.45,4.85,45,23.06a46.56,46.56,0,0,0-.67,5H41.83L42.25,25h-.06a6.81,6.81,0,0,1-5.71,3.49c-3,0-4.73-2.51-4.73-5.76,0-5.63,4.18-10.78,9.79-10.78a7.07,7.07,0,0,1,2.79.54l1.42-7.59ZM43.9,14.73a4.73,4.73,0,0,0-2.59-.67c-3.8,0-6.75,4-6.75,8.25,0,1.91.66,3.9,3,3.9,2.08,0,4.61-2.38,5.29-5.94Z"/><path class="cls-1" d="M60.21,27.17A11.18,11.18,0,0,1,55,28.42c-4.2,0-6-2.86-6-6.37,0-4.76,3.54-10.15,8.63-10.15,3,0,4.64,1.79,4.65,4.06,0,4.15-4.68,5.24-10.53,5.13a6.55,6.55,0,0,0,.32,3,3.57,3.57,0,0,0,3.52,2.13,8.84,8.84,0,0,0,4.26-1.08ZM57.21,14c-2.58,0-4.53,2.52-5.2,5,4.27,0,7.6-.52,7.6-3C59.61,14.72,58.62,14,57.21,14Z"/><path class="cls-2" d="M25.12,16.09a3,3,0,0,0-.56-1.16L18,6.82c-.17-.21-1.2-1.31-1.2-1.31a2,2,0,0,0-1.37-.66H2.2C.81,4.85.34,5.78,1.15,6.9l6.11,7.77a3.72,3.72,0,0,1,0,4.1L1.15,26.53c-.81,1.13-.34,2,1.05,2H15.45a2,2,0,0,0,1.38-.65s1-1.09,1.22-1.3l6.48-7.79A3.25,3.25,0,0,0,25.12,16.09Z"/><path class="cls-1" d="M17.61,37.93,15.47,49.28c-.42,2.14-.68,4-.91,5.49H10.18L10.5,52h-.07a7.33,7.33,0,0,1-5.8,3.13c-2.7,0-4.32-1.53-4.32-4.71a16.82,16.82,0,0,1,.33-3.11l1.79-9.4H7.38l-1.7,9a12.86,12.86,0,0,0-.26,2.23c0,1.08.45,1.94,1.7,1.94,1.68,0,3.42-2,4.06-5.38l1.48-7.8Z"/><path class="cls-1" d="M19.26,50.34a10.81,10.81,0,0,0,4.39,1.17c1.39,0,2.12-.69,2.12-1.53s-.54-1.4-2.1-2.16c-1.94-1-3.56-2.38-3.56-4.47,0-3.49,3.06-5.8,7.4-5.8a9.44,9.44,0,0,1,4.32.86l-1.18,3.51a8,8,0,0,0-3.36-.74c-1.31,0-2.19.57-2.19,1.48,0,.7.69,1.27,2,1.93,1.83.94,3.77,2.27,3.77,4.6,0,3.86-3.28,5.94-7.74,5.94a9.41,9.41,0,0,1-5.13-1.32Z"/><path class="cls-1" d="M43.93,54.77c0-1,.13-2.13.22-3.33h-.08c-1.55,2.79-3.71,3.71-5.67,3.71-3,0-5.09-2.35-5.09-5.87,0-5.67,3.77-11.73,12-11.73a19.79,19.79,0,0,1,5.57.84L49.15,47.2a41.67,41.67,0,0,0-.67,7.57Zm1.43-13.31A5.92,5.92,0,0,0,44,41.31c-3.21,0-5.54,3.93-5.54,7.06,0,1.65.67,2.79,2,2.79s3.32-1.69,4.09-5.81Z"/><path class="cls-1" d="M71.72,30.34,68.31,48.23a48.49,48.49,0,0,0-.79,6.54H63L63.22,52h-.06a6.48,6.48,0,0,1-5.52,3.11c-2.86,0-5.2-2.26-5.2-6.35,0-5.86,4.21-11.25,10.58-11.25a6.76,6.76,0,0,1,2.3.4l1.47-7.61Zm-7.1,11.57a3.28,3.28,0,0,0-2-.58c-3,0-5.07,3.42-5.07,6.65,0,2,.88,3.18,2.32,3.18s3.18-1.51,3.83-4.73Z"/><path class="cls-1" d="M89,44.49C89,50.63,84.79,55.15,79,55.15c-4.28,0-7.14-2.77-7.14-7,0-5.82,4.07-10.63,10.05-10.63C86.4,37.55,89,40.64,89,44.49ZM77,48.08c0,2,1,3.29,2.71,3.29,2.69,0,4.23-4,4.23-6.84,0-1.57-.68-3.2-2.65-3.2C78.38,41.33,76.94,45.48,77,48.08Z"/><path class="cls-1" d="M91.12,50.34a10.85,10.85,0,0,0,4.39,1.17c1.4,0,2.12-.69,2.12-1.53s-.54-1.4-2.1-2.16c-1.94-1-3.56-2.38-3.56-4.47,0-3.49,3.07-5.8,7.4-5.8a9.44,9.44,0,0,1,4.32.86l-1.17,3.51a8.06,8.06,0,0,0-3.37-.74c-1.31,0-2.19.57-2.19,1.48,0,.7.69,1.27,2.05,1.93,1.83.94,3.77,2.27,3.77,4.6,0,3.86-3.27,5.94-7.73,5.94a9.42,9.42,0,0,1-5.14-1.32Z"/><path class="cls-1" d="M17.61,37.93,15.47,49.28c-.42,2.14-.68,4-.91,5.49H10.18L10.5,52h-.07a7.33,7.33,0,0,1-5.8,3.13c-2.7,0-4.32-1.53-4.32-4.71a16.82,16.82,0,0,1,.33-3.11l1.79-9.4H7.38l-1.7,9a12.86,12.86,0,0,0-.26,2.23c0,1.08.45,1.94,1.7,1.94,1.68,0,3.42-2,4.06-5.38l1.48-7.8Z"/><path class="cls-1" d="M19.26,50.34a10.81,10.81,0,0,0,4.39,1.17c1.39,0,2.12-.69,2.12-1.53s-.54-1.4-2.1-2.16c-1.94-1-3.56-2.38-3.56-4.47,0-3.49,3.06-5.8,7.4-5.8a9.44,9.44,0,0,1,4.32.86l-1.18,3.51a8,8,0,0,0-3.36-.74c-1.31,0-2.19.57-2.19,1.48,0,.7.69,1.27,2,1.93,1.83.94,3.77,2.27,3.77,4.6,0,3.86-3.28,5.94-7.74,5.94a9.41,9.41,0,0,1-5.13-1.32Z"/><path class="cls-1" d="M43.93,54.77c0-1,.13-2.13.22-3.33h-.08c-1.55,2.79-3.71,3.71-5.67,3.71-3,0-5.09-2.35-5.09-5.87,0-5.67,3.77-11.73,12-11.73a19.79,19.79,0,0,1,5.57.84L49.15,47.2a41.67,41.67,0,0,0-.67,7.57Zm1.43-13.31A5.92,5.92,0,0,0,44,41.31c-3.21,0-5.54,3.93-5.54,7.06,0,1.65.67,2.79,2,2.79s3.32-1.69,4.09-5.81Z"/><path class="cls-1" d="M71.72,30.34,68.31,48.23a48.49,48.49,0,0,0-.79,6.54H63L63.22,52h-.06a6.48,6.48,0,0,1-5.52,3.11c-2.86,0-5.2-2.26-5.2-6.35,0-5.86,4.21-11.25,10.58-11.25a6.76,6.76,0,0,1,2.3.4l1.47-7.61Zm-7.1,11.57a3.28,3.28,0,0,0-2-.58c-3,0-5.07,3.42-5.07,6.65,0,2,.88,3.18,2.32,3.18s3.18-1.51,3.83-4.73Z"/><path class="cls-1" d="M89,44.49C89,50.63,84.79,55.15,79,55.15c-4.28,0-7.14-2.77-7.14-7,0-5.82,4.07-10.63,10.05-10.63C86.4,37.55,89,40.64,89,44.49ZM77,48.08c0,2,1,3.29,2.71,3.29,2.69,0,4.23-4,4.23-6.84,0-1.57-.68-3.2-2.65-3.2C78.38,41.33,76.94,45.48,77,48.08Z"/><path class="cls-1" d="M91.12,50.34a10.85,10.85,0,0,0,4.39,1.17c1.4,0,2.12-.69,2.12-1.53s-.54-1.4-2.1-2.16c-1.94-1-3.56-2.38-3.56-4.47,0-3.49,3.07-5.8,7.4-5.8a9.44,9.44,0,0,1,4.32.86l-1.17,3.51a8.06,8.06,0,0,0-3.37-.74c-1.31,0-2.19.57-2.19,1.48,0,.7.69,1.27,2.05,1.93,1.83.94,3.77,2.27,3.77,4.6,0,3.86-3.27,5.94-7.73,5.94a9.42,9.42,0,0,1-5.14-1.32Z"/></svg>