<?xml version="1.0" encoding="utf-8"?>
<!-- Generator: Adobe Illustrator 25.3.0, SVG Export Plug-In . SVG Version: 6.00 Build 0)  -->
<svg version="1.1" id="Capa_1" xmlns="http://www.w3.org/2000/svg" xmlns:xlink="http://www.w3.org/1999/xlink" x="0px" y="0px"
	 viewBox="0 0 650.31 128.28" style="enable-background:new 0 0 650.31 128.28;" xml:space="preserve">
<style type="text/css">
	.st0{fill:#76777A;}
	.st1{fill:#FFFFFF;}
	.st2{fill:#8BC9E0;}
	.st3{fill:#1D93C1;}
	.st4{fill:#1758A5;}
</style>
<g>
	<g>
		<g>
			<g>
				<path class="st0" d="M230.57,20.89L220.19,75.4c-1.26,6.5-2.2,13.84-2.41,19.91h-13.84l0.74-8.28h-0.21
					c-4.51,6.82-10.8,9.44-16.77,9.44c-8.71,0-15.94-6.92-15.94-19.39c0-17.82,12.89-34.17,32.29-34.17c2.1,0,4.82,0.31,7.02,1.15
					l4.4-23.16H230.57z M208.87,56.11c-1.16-0.94-3.46-1.78-5.97-1.78c-9.02,0-15.41,10.48-15.41,20.33c0,6.18,2.72,9.64,7.12,9.64
					c4.3,0,9.65-4.61,11.64-14.36L208.87,56.11z"/>
				<path class="st0" d="M270.93,92.38c-5.98,3.04-13.42,4.09-19.08,4.09c-14.68,0-22.22-8.39-22.22-21.7
					c0-15.62,11.31-31.87,29.87-31.87c10.38,0,17.82,5.77,17.82,15.3c0,13.11-12.68,17.82-33.23,17.3c0,1.46,0.52,3.77,1.57,5.24
					c1.99,2.62,5.45,3.99,9.86,3.99c5.55,0,10.27-1.26,14.36-3.25L270.93,92.38z M263.17,58.2c0-2.52-2.1-4.3-5.56-4.3
					c-7.03,0-11.01,5.77-12.06,10.59c11.75,0.11,17.62-1.57,17.62-6.19V58.2z"/>
				<path class="st0" d="M317.78,93.74c-3.25,1.57-8.49,2.73-14.57,2.73c-12.68,0-21.6-7.76-21.6-21.07
					c0-18.24,13.94-32.5,33.44-32.5c4.4,0,8.17,0.84,10.38,1.68l-3.67,11.63c-1.78-0.73-3.88-1.26-6.91-1.26
					c-10.8,0-17.4,9.11-17.4,18.76c0,7.02,4.4,10.59,10.06,10.59c4.4,0,7.55-1.05,10.17-2.1L317.78,93.74z"/>
				<path class="st0" d="M324.8,95.31l5.77-30.51c1.47-7.75,2.1-16.35,2.62-20.75h13.1c-0.32,3.46-0.63,6.92-0.94,10.48h0.31
					c3.56-6.81,9.33-11.63,16.36-11.63c0.94,0,1.88,0,2.83,0.1l-2.94,14.68c-0.73,0-1.57-0.1-2.41-0.1
					c-9.65,0-14.15,8.59-16.04,18.66l-3.56,19.07H324.8z"/>
				<path class="st0" d="M405.42,92.38c-5.97,3.04-13.42,4.09-19.08,4.09c-14.67,0-22.22-8.39-22.22-21.7
					c0-15.62,11.33-31.87,29.88-31.87c10.38,0,17.82,5.77,17.82,15.3c0,13.11-12.69,17.82-33.23,17.3c0,1.46,0.53,3.77,1.58,5.24
					c1.99,2.62,5.45,3.99,9.85,3.99c5.56,0,10.27-1.26,14.36-3.25L405.42,92.38z M397.65,58.2c0-2.52-2.09-4.3-5.55-4.3
					c-7.03,0-11.01,5.77-12.06,10.59c11.75,0.11,17.61-1.57,17.61-6.19V58.2z"/>
				<path class="st0" d="M474.6,20.89L464.23,75.4c-1.26,6.5-2.2,13.84-2.42,19.91h-13.84l0.73-8.28h-0.2
					c-4.51,6.82-10.8,9.44-16.78,9.44c-8.71,0-15.93-6.92-15.93-19.39c0-17.82,12.89-34.17,32.28-34.17c2.1,0,4.83,0.31,7.02,1.15
					l4.41-23.16H474.6z M452.91,56.11c-1.16-0.94-3.46-1.78-5.98-1.78c-9.01,0-15.41,10.48-15.41,20.33c0,6.18,2.73,9.64,7.13,9.64
					c4.29,0,9.64-4.61,11.64-14.36L452.91,56.11z"/>
				<path class="st0" d="M472.09,95.31l9.75-51.26h15.1l-9.75,51.26H472.09z M491.17,37.66c-4.09,0-7.24-2.83-7.24-7.34
					c0.1-5.13,4.09-8.6,8.71-8.6c4.4,0,7.55,2.93,7.55,7.44c0,5.34-4.09,8.49-8.92,8.49H491.17z"/>
				<path class="st0" d="M527.75,30.11l-2.62,13.94h10.9l-2.2,11.43h-10.9l-3.45,17.4c-0.42,1.99-0.84,4.72-0.84,6.5
					c0,2.52,1.04,4.3,4.29,4.3c1.36,0,2.83,0,4.2-0.21l-1.78,11.84c-1.89,0.73-5.67,1.15-8.92,1.15c-9.02,0-13.32-4.72-13.32-11.11
					c0-2.83,0.32-5.55,1.06-9.54l3.98-20.34h-6.5l2.09-11.43h6.61l1.88-9.64L527.75,30.11z"/>
				<path class="st0" d="M587.82,63.97c0,18.76-12.79,32.5-30.6,32.5c-13,0-21.7-8.49-21.7-21.18c0-17.82,12.37-32.39,30.61-32.39
					C579.85,42.9,587.82,52.34,587.82,63.97 M551.13,74.98c0,5.97,2.94,9.95,8.18,9.95c8.29,0,12.9-12.05,12.9-20.86
					c0-4.71-1.99-9.74-8.07-9.74C555.42,54.33,551.03,67.01,551.13,74.98"/>
				<path class="st0" d="M593.16,81.79c2.94,1.47,8.49,3.56,13.42,3.56c4.3,0,6.5-2.1,6.5-4.61c0-2.52-1.68-4.3-6.4-6.6
					c-5.98-2.94-10.9-7.23-10.9-13.63c0-10.59,9.33-17.61,22.54-17.61c5.98,0,10.69,1.15,13.21,2.62l-3.56,10.69
					c-2.2-1.05-5.77-2.31-10.27-2.31c-3.98,0-6.71,1.78-6.71,4.51c0,2.1,2.1,3.88,6.29,5.87c5.55,2.83,11.43,6.92,11.43,14.04
					c0,11.74-9.96,18.24-23.49,18.13c-6.5-0.21-12.68-1.78-15.72-4.09L593.16,81.79z"/>
				<path class="st0" d="M643.15,37.15c3.99,0,7.17,3.13,7.17,7.01c0,3.91-3.17,7.04-7.2,7.04c-4.03,0-7.29-3.13-7.29-7.04
					c0-3.87,3.26-7.01,7.29-7.01H643.15z M643.02,38.9c-2.88,0-5.05,2.32-5.05,5.29c0,2.9,2.16,5.26,5.09,5.26
					c2.94,0.04,5.09-2.36,5.09-5.3c0-2.93-2.15-5.25-5.09-5.25H643.02z M642.22,47.49h-2.04v-6.48c0.44-0.08,1.55-0.24,2.85-0.24
					c1.51,0,2.12,0.2,2.62,0.53c0.4,0.28,0.69,0.77,0.69,1.43c0,0.65-0.56,1.22-1.46,1.46v0.08c0.69,0.2,1.1,0.73,1.3,1.67
					c0.2,0.94,0.37,1.3,0.45,1.55h-2.2c-0.21-0.25-0.33-0.81-0.49-1.38c-0.13-0.65-0.45-0.98-1.11-0.98h-0.6V47.49z M642.25,43.79
					h0.56c0.78,0,1.23-0.32,1.23-0.77c0-0.53-0.45-0.81-1.1-0.81c-0.28,0-0.53,0.04-0.69,0.04V43.79z"/>
			</g>
		</g>
		<g>
			<path class="st1" d="M98.71,36.96L74.72,7.23c-0.64-0.79-4.39-4.82-4.39-4.82C69.26,1.09,66.99,0,65.29,0H59.6H32.07H5.31
				C0.2,0-1.53,3.38,1.47,7.52l22.42,28.49c2.99,4.14,2.99,10.91,0,15.04L1.47,79.54c-3,4.14-1.27,7.52,3.84,7.52h26.76H59.6h5.69
				c1.7,0,3.99-1.07,5.08-2.38c0,0,3.82-3.98,4.46-4.76l23.78-28.59C101.88,47.4,101.93,40.93,98.71,36.96"/>
			<path class="st1" d="M116.65,92.27c-2.99-4.14-2.99-10.91,0-15.04l22.42-28.48c3-4.14,1.27-7.52-3.84-7.52h-11.36
				c5.11,0,6.84,3.38,3.84,7.52l-22.42,28.48c-2.99,4.14-2.99,10.91,0,15.04l22.42,28.49c3,4.14,1.27,7.52-3.84,7.52h11.36
				c5.11,0,6.84-3.39,3.84-7.52L116.65,92.27z"/>
			<path class="st1" d="M41.93,76.95l23.78-28.59c0.64-0.78,4.47-4.76,4.47-4.76c1.09-1.31,3.37-2.38,5.07-2.38h5.68h0.01h19.83
				c-0.37-1.56-1.05-3.03-2.05-4.26L74.73,7.23c-0.64-0.79-4.39-4.82-4.39-4.82C69.27,1.09,67,0,65.3,0h-5.69H38.49H16.68
				c-5.12,0-6.84,3.38-3.84,7.52l22.42,28.49c3,4.14,3,10.91,0,15.04L12.84,79.54c-3,4.14-1.27,7.52,3.84,7.52h21.81h1.29
				C38.96,83.58,39.68,79.66,41.93,76.95z"/>
			<path class="st1" d="M105.28,92.27c-2.99-4.14-2.99-10.91,0-15.05l22.42-28.48c3-4.14,1.27-7.52-3.84-7.52h-15.4h-6.42h-1.28
				c0.82,3.47,0.1,7.39-2.15,10.1L74.84,79.92c-0.64,0.78-4.46,4.76-4.46,4.76c-1.09,1.31-3.37,2.38-5.08,2.38h-5.69H39.78
				c0.37,1.56,1.05,3.03,2.04,4.27l23.99,29.73c0.64,0.79,4.4,4.82,4.4,4.82c1.07,1.32,3.34,2.41,5.04,2.41h5.68h0.01h21.11h6.42
				h15.4c5.11,0,6.84-3.38,3.84-7.52L105.28,92.27z"/>
			<path class="st1" d="M65.3,87.05c1.7,0,3.99-1.07,5.08-2.38c0,0,3.82-3.98,4.46-4.76l23.78-28.59c2.25-2.71,2.98-6.63,2.15-10.1
				H80.94h-0.01h-5.68c-1.7,0-3.99,1.07-5.07,2.38c0,0-3.82,3.98-4.47,4.76L41.93,76.95c-2.25,2.71-2.97,6.63-2.15,10.1h19.83H65.3z
				"/>
		</g>
		<g>
			<path class="st2" d="M98.71,36.96L74.72,7.23c-0.64-0.79-4.39-4.82-4.39-4.82C69.26,1.09,66.99,0,65.29,0H59.6H32.07H5.31
				C0.2,0-1.53,3.38,1.47,7.52l22.42,28.49c2.99,4.14,2.99,10.91,0,15.04L1.47,79.54c-3,4.14-1.27,7.52,3.84,7.52h26.76H59.6h5.69
				c1.7,0,3.99-1.07,5.08-2.38c0,0,3.82-3.98,4.46-4.76l23.78-28.59C101.88,47.4,101.93,40.93,98.71,36.96"/>
			<path class="st2" d="M116.65,92.27c-2.99-4.14-2.99-10.91,0-15.04l22.42-28.48c3-4.14,1.27-7.52-3.84-7.52h-11.36
				c5.11,0,6.84,3.38,3.84,7.52l-22.42,28.48c-2.99,4.14-2.99,10.91,0,15.04l22.42,28.49c3,4.14,1.27,7.52-3.84,7.52h11.36
				c5.11,0,6.84-3.39,3.84-7.52L116.65,92.27z"/>
			<path class="st3" d="M41.93,76.95l23.78-28.59c0.64-0.78,4.47-4.76,4.47-4.76c1.09-1.31,3.37-2.38,5.07-2.38h5.68h0.01h19.83
				c-0.37-1.56-1.05-3.03-2.05-4.26L74.73,7.23c-0.64-0.79-4.39-4.82-4.39-4.82C69.27,1.09,67,0,65.3,0h-5.69H38.49H16.68
				c-5.12,0-6.84,3.38-3.84,7.52l22.42,28.49c3,4.14,3,10.91,0,15.04L12.84,79.54c-3,4.14-1.27,7.52,3.84,7.52h21.81h1.29
				C38.96,83.58,39.68,79.66,41.93,76.95z"/>
			<path class="st3" d="M105.28,92.27c-2.99-4.14-2.99-10.91,0-15.05l22.42-28.48c3-4.14,1.27-7.52-3.84-7.52h-15.4h-6.42h-1.28
				c0.82,3.47,0.1,7.39-2.15,10.1L74.84,79.92c-0.64,0.78-4.46,4.76-4.46,4.76c-1.09,1.31-3.37,2.38-5.08,2.38h-5.69H39.78
				c0.37,1.56,1.05,3.03,2.04,4.27l23.99,29.73c0.64,0.79,4.4,4.82,4.4,4.82c1.07,1.32,3.34,2.41,5.04,2.41h5.68h0.01h21.11h6.42
				h15.4c5.11,0,6.84-3.38,3.84-7.52L105.28,92.27z"/>
			<path class="st4" d="M65.3,87.05c1.7,0,3.99-1.07,5.08-2.38c0,0,3.82-3.98,4.46-4.76l23.78-28.59c2.25-2.71,2.98-6.63,2.15-10.1
				H80.94h-0.01h-5.68c-1.7,0-3.99,1.07-5.07,2.38c0,0-3.82,3.98-4.47,4.76L41.93,76.95c-2.25,2.71-2.97,6.63-2.15,10.1h19.83H65.3z
				"/>
		</g>
	</g>
</g>
</svg>
