<svg width="184" height="67" viewBox="0 0 184 67" fill="none" xmlns="http://www.w3.org/2000/svg">
<path d="M53.0769 15.5879L49.3261 36.5411C48.9708 38.4451 48.7286 40.3706 48.6007 42.3065H45.8761L46.3361 38.7054C45.7185 39.8835 44.8216 40.8724 43.7332 41.5755C42.6447 42.2787 41.4018 42.672 40.1261 42.7169C36.8 42.7169 34.96 39.8249 34.96 36.0933C34.96 29.6375 39.5246 23.7042 45.5753 23.7042C46.6184 23.6938 47.653 23.9032 48.6184 24.3199L50.1576 15.5879H53.0769ZM48.1407 26.9694C47.2952 26.4254 46.3176 26.1531 45.3277 26.1858C41.1877 26.1858 37.9677 30.8317 37.9677 35.6641C37.9677 37.8658 38.6753 40.1608 41.223 40.1608C43.4876 40.1608 46.2476 37.418 46.9907 33.3319L48.1407 26.9694Z" fill="#B4EFE4"/>
<path d="M65.9209 41.2615C64.1614 42.223 62.2056 42.7162 60.224 42.6982C55.6417 42.6982 53.6602 39.3957 53.6602 35.3841C53.6602 29.8986 57.5171 23.7041 63.0725 23.7041C66.3455 23.7041 68.1325 25.7565 68.1325 28.3687C68.1325 33.1452 63.0371 34.3953 56.6502 34.2646C56.5123 35.4348 56.6334 36.6226 57.004 37.7351C57.3268 38.5103 57.869 39.1613 58.5563 39.5989C59.2436 40.0365 60.0424 40.2392 60.8432 40.1793C62.4583 40.1841 64.0477 39.7538 65.4609 38.9292L65.9209 41.2615ZM62.6478 26.1297C59.8348 26.1297 57.7117 29.0217 56.9863 31.8764C61.6394 31.8764 65.284 31.2793 65.284 28.4433C65.284 26.9693 64.2048 26.1297 62.6478 26.1297Z" fill="#B4EFE4"/>
<path d="M89.0285 22.9395L86.6931 36.0002C86.2508 38.4444 85.95 40.5715 85.72 42.3067H80.9431L81.2793 39.1534C80.5617 40.2317 79.6156 41.1187 78.5161 41.7438C77.4166 42.3689 76.194 42.715 74.9454 42.7545C72.0085 42.7545 70.2393 41.0006 70.2393 37.3436C70.2565 36.1408 70.3749 34.942 70.5931 33.7612L72.5393 22.9395H77.8469L76.0777 33.2948C75.9139 34.143 75.8192 35.0044 75.7946 35.8696C75.7946 37.101 76.2723 38.0899 77.5639 38.0899C79.3331 38.0899 81.297 35.7763 81.9869 31.9141L83.597 22.9395H89.0285Z" fill="#B4EFE4"/>
<path d="M90.8318 37.2135C92.3182 38.0068 93.9452 38.4643 95.6087 38.5569C97.148 38.5569 97.9264 37.7546 97.9264 36.6911C97.9264 35.6275 97.3426 35.0865 95.6441 34.2095C93.521 33.1273 91.7518 31.4854 91.7518 29.0785C91.7518 25.067 95.0956 22.3989 99.8195 22.3989C101.448 22.3316 103.068 22.6771 104.543 23.4064L103.252 27.4366C102.107 26.8661 100.856 26.5729 99.5895 26.5783C98.1564 26.5783 97.201 27.2314 97.201 28.2762C97.201 29.3211 97.9441 29.7502 99.4303 30.5152C101.429 31.5787 103.553 33.1087 103.553 35.7955C103.553 40.2361 100.014 42.6244 95.1133 42.6244C93.1459 42.6903 91.2011 42.1663 89.5049 41.1131L90.8318 37.2135Z" fill="#B4EFE4"/>
<path d="M117.742 42.307C117.742 41.1689 117.884 39.8442 117.972 38.4634H117.884C117.344 39.7194 116.477 40.7879 115.384 41.5443C114.291 42.3008 113.016 42.7141 111.709 42.7362C108.418 42.7362 106.154 40.0307 106.154 36.0006C106.091 34.1784 106.391 32.3627 107.034 30.6702C107.677 28.9776 108.649 27.4459 109.887 26.1734C111.125 24.9009 112.602 23.916 114.223 23.2819C115.845 22.6479 117.573 22.3788 119.299 22.492C121.355 22.5149 123.398 22.8415 125.368 23.4622L123.439 33.5936C122.932 36.467 122.683 39.3844 122.696 42.307H117.742ZM119.299 26.97C118.816 26.8609 118.324 26.8047 117.831 26.802C114.292 26.802 111.78 31.3173 111.78 34.9184C111.78 36.7842 112.505 38.1276 113.991 38.1276C115.477 38.1276 117.53 36.2618 118.45 31.4479L119.299 26.97Z" fill="#B4EFE4"/>
<path d="M148.049 14.207L144.316 34.7311C143.873 37.1963 143.584 39.6894 143.449 42.1944H138.513L138.778 39.0598C138.154 40.1773 137.264 41.1041 136.197 41.7486C135.13 42.3932 133.922 42.7333 132.692 42.7354C129.56 42.7354 127.013 40.142 127.013 35.4401C126.949 33.7872 127.198 32.1374 127.746 30.5873C128.294 29.0372 129.129 27.6178 130.203 26.4122C131.277 25.2065 132.568 24.2388 134.001 23.5655C135.434 22.8923 136.98 22.5271 138.548 22.4913C139.405 22.4933 140.255 22.6511 141.06 22.9577L142.653 14.207H148.049ZM140.3 27.5103C139.674 27.0486 138.922 26.8129 138.159 26.8386C134.921 26.8386 132.692 30.7009 132.692 34.4325C132.692 36.7835 133.647 38.1642 135.204 38.1642C136.761 38.1642 138.743 36.429 139.38 32.7346L140.3 27.5103Z" fill="#B4EFE4"/>
<path d="M166.891 30.4772C166.891 37.5487 162.291 42.7357 155.94 42.7357C154.914 42.816 153.883 42.6659 152.917 42.2951C151.95 41.9244 151.068 41.3415 150.331 40.5849C149.593 39.8284 149.017 38.9154 148.639 37.9064C148.261 36.8973 148.09 35.8151 148.138 34.7313C148.064 33.1597 148.292 31.5887 148.809 30.1126C149.326 28.6366 150.121 27.2861 151.145 26.1426C152.17 24.999 153.404 24.086 154.772 23.4586C156.14 22.8311 157.615 22.5021 159.107 22.4915C160.129 22.4201 161.153 22.5759 162.114 22.949C163.075 23.322 163.951 23.9038 164.685 24.6568C165.419 25.4098 165.995 26.317 166.375 27.3197C166.755 28.3224 166.931 29.3981 166.891 30.4772ZM153.728 34.6193C153.728 36.877 154.808 38.351 156.701 38.351C159.62 38.351 161.301 33.7797 161.301 30.4959C161.301 28.63 160.558 26.7642 158.417 26.7642C155.303 26.8388 153.728 31.6153 153.728 34.6193Z" fill="#B4EFE4"/>
<path d="M169.191 37.2136C170.683 38.0094 172.316 38.467 173.986 38.557C175.507 38.557 176.286 37.7547 176.286 36.6912C176.286 35.6277 175.702 35.0866 174.003 34.2097C171.898 33.1275 170.111 31.4856 170.111 29.0787C170.111 25.0671 173.473 22.399 178.196 22.399C179.819 22.3311 181.433 22.6767 182.903 23.4066L181.629 27.4367C180.477 26.8689 179.22 26.5759 177.949 26.5785C176.516 26.5785 175.56 27.2315 175.56 28.2764C175.56 29.3212 176.321 29.7504 177.807 30.5153C179.806 31.5789 181.912 33.1088 181.912 35.7956C181.912 40.2363 178.373 42.6245 173.473 42.6245C171.511 42.691 169.571 42.1668 167.882 41.1132L169.191 37.2136Z" fill="#B4EFE4"/>
<path d="M27.6532 28.5181C27.552 28.028 27.3463 27.5686 27.0516 27.1747L19.9747 17.8456L18.6655 16.3343C18.2826 15.8862 17.7499 15.6121 17.1793 15.5693H2.67165C1.15011 15.5693 0.637036 16.6329 1.53934 17.9389L8.19165 26.9695C8.62489 27.6719 8.8555 28.4918 8.8555 29.3298C8.8555 30.1677 8.62489 30.9876 8.19165 31.69L1.53934 40.5154C0.637036 41.8214 1.15011 42.885 2.67165 42.885H17.1263C17.7 42.8499 18.2388 42.5826 18.6301 42.1386C18.6301 42.1386 19.7624 40.8885 19.957 40.646L27.034 31.69C27.3565 31.2444 27.5796 30.7278 27.6868 30.1786C27.794 29.6295 27.7825 29.0619 27.6532 28.5181Z" fill="url(#paint0_linear_1995_882)"/>
<defs>
<linearGradient id="paint0_linear_1995_882" x1="1.09704" y1="29.2458" x2="27.7593" y2="29.2458" gradientUnits="userSpaceOnUse">
<stop offset="0.05" stop-color="#B4EFE4"/>
<stop offset="1" stop-color="#FFDEDC"/>
</linearGradient>
</defs>
</svg>
