<svg 
id="Capa_1" 
data-name="Capa 1" 
xmlns="http://www.w3.org/2000/svg" 
xmlns:xlink="http://www.w3.org/1999/xlink" 
viewBox="0 0 104 60"><defs><style>.cls-1{fill:#0a3066;}.cls-2{fill:url(#Degradado_sin_nombre_28);}</style><linearGradient id="Degradado_sin_nombre_28" x1="0.62" y1="30.22" x2="15.69" y2="30.22" gradientUnits="userSpaceOnUse"><stop offset="0" stop-color="#0a3066"/><stop offset="0.26" stop-color="#0c3268"/><stop offset="0.41" stop-color="#133b6d"/><stop offset="0.53" stop-color="#204976"/><stop offset="0.64" stop-color="#325d83"/><stop offset="0.73" stop-color="#497694"/><stop offset="0.82" stop-color="#6596a9"/><stop offset="0.91" stop-color="#87bcc2"/><stop offset="0.99" stop-color="#ade7de"/><stop offset="1" stop-color="#b4efe4"/></linearGradient></defs><path class="cls-1" d="M30,22.9,27.88,34.13a25,25,0,0,0-.41,3.09H25.93l.26-1.93h0a4.17,4.17,0,0,1-3.51,2.15c-1.88,0-2.92-1.55-2.92-3.55,0-3.46,2.58-6.64,6-6.64a4.43,4.43,0,0,1,1.72.33l.87-4.68ZM27.21,29a2.88,2.88,0,0,0-1.59-.42c-2.34,0-4.16,2.49-4.16,5.08,0,1.18.4,2.41,1.84,2.41,1.28,0,2.84-1.47,3.26-3.66Z"/><path class="cls-1" d="M37.26,36.66a6.87,6.87,0,0,1-3.22.77c-2.59,0-3.71-1.77-3.71-3.92,0-2.94,2.18-6.26,5.32-6.26,1.85,0,2.86,1.1,2.86,2.5,0,2.56-2.88,3.23-6.49,3.16a4.09,4.09,0,0,0,.2,1.86,2.2,2.2,0,0,0,2.17,1.31A5.36,5.36,0,0,0,37,35.41Zm-1.85-8.11c-1.59,0-2.79,1.55-3.2,3.08,2.63,0,4.69-.32,4.69-1.84C36.9,29,36.29,28.55,35.41,28.55Z"/><path class="cls-1" d="M50.32,26.84l-1.32,7c-.25,1.31-.42,2.45-.55,3.38h-2.7l.19-1.69h0a4.54,4.54,0,0,1-3.58,1.93c-1.66,0-2.66-.94-2.66-2.9a10.9,10.9,0,0,1,.2-1.92L41,26.84H44L43,32.39a8.13,8.13,0,0,0-.16,1.38c0,.66.27,1.19,1,1.19,1,0,2.11-1.24,2.5-3.31l.91-4.81Z"/><path class="cls-1" d="M51.34,34.49a6.77,6.77,0,0,0,2.7.72c.87,0,1.31-.43,1.31-1s-.33-.86-1.29-1.33c-1.2-.58-2.2-1.46-2.2-2.75,0-2.15,1.89-3.58,4.56-3.58a5.76,5.76,0,0,1,2.67.54l-.73,2.16a4.8,4.8,0,0,0-2.07-.46c-.81,0-1.35.35-1.35.91s.42.79,1.26,1.2c1.13.57,2.33,1.39,2.33,2.83,0,2.38-2,3.66-4.77,3.66a5.88,5.88,0,0,1-3.17-.81Z"/><path class="cls-1" d="M66.55,37.22c0-.61.08-1.32.13-2.06h-.05a3.9,3.9,0,0,1-3.49,2.29C61.28,37.45,60,36,60,33.84a7,7,0,0,1,7.43-7.24,12.44,12.44,0,0,1,3.43.52l-1.09,5.43a24.88,24.88,0,0,0-.42,4.67ZM67.43,29a4.06,4.06,0,0,0-.83-.09c-2,0-3.42,2.42-3.42,4.35,0,1,.41,1.72,1.25,1.72s2-1,2.52-3.58Z"/><path class="cls-1" d="M83.68,22.16l-2.11,11a30.93,30.93,0,0,0-.49,4H78.29l.15-1.68h0A4,4,0,0,1,75,37.45c-1.77,0-3.21-1.39-3.21-3.91a6.67,6.67,0,0,1,6.52-6.94,4.21,4.21,0,0,1,1.42.25l.9-4.69ZM79.3,29.29a2,2,0,0,0-1.21-.36C76.26,28.93,75,31,75,33c0,1.26.54,2,1.42,2s2-.93,2.36-2.91Z"/><path class="cls-1" d="M94.33,30.88c0,3.79-2.6,6.57-6.19,6.57a4.11,4.11,0,0,1-4.41-4.29,6.25,6.25,0,0,1,6.2-6.56A4.13,4.13,0,0,1,94.33,30.88ZM86.89,33.1c0,1.21.61,2,1.68,2,1.65,0,2.6-2.45,2.6-4.21,0-1-.42-2-1.63-2C87.78,28.93,86.89,31.49,86.89,33.1Z"/><path class="cls-1" d="M95.63,34.49a6.77,6.77,0,0,0,2.71.72c.86,0,1.3-.43,1.3-1s-.33-.86-1.29-1.33c-1.19-.58-2.2-1.46-2.2-2.75,0-2.15,1.9-3.58,4.57-3.58a5.71,5.71,0,0,1,2.66.54l-.72,2.16a4.89,4.89,0,0,0-2.08-.46c-.81,0-1.35.35-1.35.91s.43.79,1.27,1.2c1.13.57,2.32,1.39,2.32,2.83,0,2.38-2,3.66-4.77,3.66a5.84,5.84,0,0,1-3.16-.81Z"/><path class="cls-2" d="M15.63,29.83a1.77,1.77,0,0,0-.34-.72l-4-5-.74-.81a1.25,1.25,0,0,0-.84-.41H1.51c-.86,0-1.15.57-.64,1.27L4.63,29a2.32,2.32,0,0,1,0,2.53L.87,36.26c-.51.7-.22,1.27.64,1.27H9.68a1.26,1.26,0,0,0,.85-.4s.64-.67.75-.8l4-4.8A2,2,0,0,0,15.63,29.83Z"/></svg>