<svg width="20" height="22" viewBox="0 0 20 22" fill="none" xmlns="http://www.w3.org/2000/svg">
<path fill-rule="evenodd" clip-rule="evenodd" d="M5.58893 3.71096C6.76195 2.56726 8.349 1.92798 10 1.92798C11.651 1.92798 13.238 2.56726 14.4111 3.71096C15.5847 4.85529 16.2477 6.41139 16.2477 8.03803C16.2477 11.0561 16.9098 12.9413 17.5292 14.0485C17.8401 14.6041 18.1445 14.9717 18.3597 15.1932C18.4675 15.3042 18.5534 15.3789 18.6072 15.4226C18.634 15.4444 18.6529 15.4585 18.6624 15.4654C18.6655 15.4676 18.6676 15.4691 18.6687 15.4699C18.9398 15.6504 19.062 15.9868 18.9693 16.2996C18.8758 16.6151 18.5859 16.8316 18.2568 16.8316H1.74318C1.41411 16.8316 1.12423 16.6151 1.03071 16.2996C0.937963 15.9868 1.0602 15.6504 1.33129 15.4699C1.33238 15.4691 1.33449 15.4677 1.33757 15.4654C1.34711 15.4585 1.36596 15.4444 1.39283 15.4226C1.44657 15.3789 1.53246 15.3042 1.64026 15.1932C1.85547 14.9717 2.15993 14.6041 2.47079 14.0485C3.09017 12.9413 3.75233 11.0561 3.75233 8.03803C3.75233 6.41139 4.41526 4.85529 5.58893 3.71096Z" fill="#B4EFE4" stroke="#585858" stroke-width="2" stroke-linecap="round" stroke-linejoin="round"/>
<path fill-rule="evenodd" clip-rule="evenodd" d="M7.52368 19.3244C7.86491 19.0964 8.32639 19.1882 8.55442 19.5294C8.68729 19.7282 8.88651 19.9055 9.14203 20.0333C9.39773 20.1611 9.69422 20.2313 10.0008 20.2313C10.3073 20.2313 10.6038 20.1611 10.8595 20.0333C11.115 19.9055 11.3142 19.7282 11.4471 19.5294C11.6751 19.1882 12.1366 19.0964 12.4778 19.3244C12.8191 19.5525 12.9109 20.0139 12.6828 20.3552C12.3962 20.7842 11.9932 21.1281 11.5242 21.3626C11.0553 21.597 10.5304 21.7175 10.0008 21.7175C9.47117 21.7175 8.9462 21.597 8.47736 21.3626C8.00834 21.1281 7.60537 20.7842 7.31869 20.3552C7.09067 20.0139 7.18244 19.5525 7.52368 19.3244Z" fill="#585858"/>
</svg>


