<svg width="24" height="24" viewBox="0 0 24 24" fill="none" xmlns="http://www.w3.org/2000/svg">
<path d="M10.5 21.5L9.5 18.5L7.5 17L4.5 18.5L3 15L5.5 13.5V11L3 8.5L4.5 6L8 7L9.5 5.5L10.5 2.5H13.5L14.5 5.5L16.5 7L19.5 6L21 8.5L18.5 10.5L19 13L21 15.5L19.5 18.5L16.5 17L14.5 18.5L14 21.5H10.5Z" fill="#91D5FF"/>
<circle cx="12" cy="12" r="2" fill="#FAFAFA"/>
<path d="M13.7251 22.35H10.2751C10.0251 22.35 9.80007 22.275 9.60007 22.125C9.40007 21.975 9.2834 21.775 9.25007 21.525L8.87507 19.1C8.6084 19 8.3209 18.8625 8.01257 18.6875C7.70423 18.5125 7.44173 18.3333 7.22507 18.15L5.00007 19.2C4.76673 19.3167 4.52923 19.3333 4.28757 19.25C4.0459 19.1667 3.8584 19.0083 3.72507 18.775L1.97507 15.65C1.84173 15.4333 1.80423 15.2042 1.86257 14.9625C1.9209 14.7208 2.05007 14.5167 2.25007 14.35L4.32507 12.85C4.29173 12.7333 4.2709 12.5917 4.26257 12.425C4.25423 12.2583 4.25007 12.1167 4.25007 12C4.25007 11.8833 4.25423 11.7417 4.26257 11.575C4.2709 11.4083 4.29173 11.2667 4.32507 11.15L2.25007 9.625C2.05007 9.475 1.9209 9.275 1.86257 9.025C1.80423 8.775 1.84173 8.55 1.97507 8.35L3.72507 5.225C3.8584 5.00833 4.0459 4.85833 4.28757 4.775C4.52923 4.69167 4.76673 4.7 5.00007 4.8L7.25007 5.85C7.46673 5.66667 7.72507 5.49167 8.02507 5.325C8.32507 5.15833 8.6084 5.03333 8.87507 4.95L9.25007 2.475C9.2834 2.225 9.40007 2.02083 9.60007 1.8625C9.80007 1.70417 10.0251 1.625 10.2751 1.625H13.7251C13.9751 1.625 14.2001 1.70417 14.4001 1.8625C14.6001 2.02083 14.7167 2.225 14.7501 2.475L15.1251 4.925C15.3917 5.025 15.6792 5.15417 15.9876 5.3125C16.2959 5.47083 16.5584 5.65 16.7751 5.85L19.0001 4.8C19.2334 4.7 19.4709 4.6875 19.7126 4.7625C19.9542 4.8375 20.1417 4.99167 20.2751 5.225L22.0501 8.325C22.1834 8.54167 22.2209 8.775 22.1626 9.025C22.1042 9.275 21.9667 9.475 21.7501 9.625L19.6751 11.1C19.6917 11.2333 19.7084 11.3833 19.7251 11.55C19.7417 11.7167 19.7501 11.8667 19.7501 12C19.7501 12.1333 19.7417 12.2792 19.7251 12.4375C19.7084 12.5958 19.6917 12.7417 19.6751 12.875L21.7501 14.35C21.9501 14.5167 22.0792 14.7208 22.1376 14.9625C22.1959 15.2042 22.1667 15.4333 22.0501 15.65L20.2751 18.775C20.1417 19.0083 19.9542 19.1667 19.7126 19.25C19.4709 19.3333 19.2334 19.3167 19.0001 19.2L16.7501 18.15C16.5334 18.3333 16.2792 18.5167 15.9876 18.7C15.6959 18.8833 15.4084 19.0167 15.1251 19.1L14.7501 21.525C14.7167 21.775 14.6001 21.975 14.4001 22.125C14.2001 22.275 13.9751 22.35 13.7251 22.35ZM11.9751 15.25C12.8751 15.25 13.6417 14.9333 14.2751 14.3C14.9084 13.6667 15.2251 12.9 15.2251 12C15.2251 11.1 14.9084 10.3333 14.2751 9.7C13.6417 9.06667 12.8751 8.75 11.9751 8.75C11.0751 8.75 10.3084 9.06667 9.67507 9.7C9.04174 10.3333 8.72507 11.1 8.72507 12C8.72507 12.9 9.04174 13.6667 9.67507 14.3C10.3084 14.9333 11.0751 15.25 11.9751 15.25ZM11.9751 13.75C11.4751 13.75 11.0584 13.5792 10.7251 13.2375C10.3917 12.8958 10.2251 12.4833 10.2251 12C10.2251 11.5167 10.3917 11.1042 10.7251 10.7625C11.0584 10.4208 11.4751 10.25 11.9751 10.25C12.4584 10.25 12.8709 10.4208 13.2126 10.7625C13.5542 11.1042 13.7251 11.5167 13.7251 12C13.7251 12.4833 13.5542 12.8958 13.2126 13.2375C12.8709 13.5792 12.4584 13.75 11.9751 13.75ZM11.0251 20.375H12.9751L13.3251 17.575C13.8917 17.4417 14.4292 17.2333 14.9376 16.95C15.4459 16.6667 15.9001 16.3167 16.3001 15.9L18.9501 17.05L19.8251 15.425L17.5001 13.725C17.5667 13.4417 17.6209 13.1583 17.6626 12.875C17.7042 12.5917 17.7251 12.3 17.7251 12C17.7251 11.7 17.7084 11.4083 17.6751 11.125C17.6417 10.8417 17.5834 10.5583 17.5001 10.275L19.8251 8.575L18.9501 6.95L16.3001 8.1C15.9167 7.65 15.4751 7.27083 14.9751 6.9625C14.4751 6.65417 13.9251 6.46667 13.3251 6.4L12.9751 3.625H11.0251L10.6751 6.4C10.0917 6.5 9.5459 6.7 9.03757 7C8.52924 7.3 8.07507 7.66667 7.67507 8.1L5.05007 6.95L4.17507 8.575L6.47507 10.25C6.4084 10.55 6.35423 10.8417 6.31257 11.125C6.2709 11.4083 6.25007 11.7 6.25007 12C6.25007 12.3 6.2709 12.5958 6.31257 12.8875C6.35423 13.1792 6.4084 13.4667 6.47507 13.75L4.17507 15.425L5.05007 17.05L7.67507 15.9C8.09173 16.3167 8.55423 16.6708 9.06257 16.9625C9.5709 17.2542 10.1084 17.4667 10.6751 17.6L11.0251 20.375Z" fill="#585858"/>
</svg>
