<svg width="29" height="29" viewBox="0 0 29 29" fill="none" xmlns="http://www.w3.org/2000/svg">
<path fill-rule="evenodd" clip-rule="evenodd" d="M9.66634 2.41659C9.66634 1.74924 10.2073 1.20825 10.8747 1.20825H18.1247C18.792 1.20825 19.333 1.74924 19.333 2.41659C19.333 3.08393 18.792 3.62492 18.1247 3.62492H15.708V4.83325C15.708 4.85427 15.7075 4.87517 15.7064 4.89592C21.479 5.49899 25.9788 10.3802 25.9788 16.3124C25.9788 22.6522 20.8394 27.7916 14.4997 27.7916C8.15991 27.7916 3.02051 22.6522 3.02051 16.3124C3.02051 10.3802 7.52037 5.49899 13.2929 4.89592C13.2919 4.87517 13.2913 4.85427 13.2913 4.83325V3.62492H10.8747C10.2073 3.62492 9.66634 3.08393 9.66634 2.41659ZM14.4997 7.24992C9.49459 7.24992 5.43717 11.3073 5.43717 16.3124C5.43717 21.3175 9.49459 25.3749 14.4997 25.3749C19.5048 25.3749 23.5622 21.3175 23.5622 16.3124C23.5622 11.3073 19.5048 7.24992 14.4997 7.24992ZM14.4997 10.2708C15.167 10.2708 15.708 10.8117 15.708 11.4791V15.7083H19.333C20.0004 15.7083 20.5413 16.2492 20.5413 16.9166C20.5413 17.5839 20.0004 18.1249 19.333 18.1249H14.4997C13.8323 18.1249 13.2913 17.5839 13.2913 16.9166C13.2913 16.8123 13.3046 16.7111 13.3294 16.6145C13.3046 16.5179 13.2913 16.4167 13.2913 16.3124V11.4791C13.2913 10.8117 13.8323 10.2708 14.4997 10.2708Z" fill="black" fill-opacity="0.8"/>
<path fill-rule="evenodd" clip-rule="evenodd" d="M5.4375 16.3125C5.4375 11.3074 9.49492 7.25 14.5 7.25C19.5051 7.25 23.5625 11.3074 23.5625 16.3125C23.5625 21.3176 19.5051 25.375 14.5 25.375C9.49492 25.375 5.4375 21.3176 5.4375 16.3125ZM14.5 10.2708C15.1673 10.2708 15.7083 10.8118 15.7083 11.4792V15.7083H19.3333C20.0007 15.7083 20.5417 16.2493 20.5417 16.9167C20.5417 17.584 20.0007 18.125 19.3333 18.125H14.5C13.8327 18.125 13.2917 17.584 13.2917 16.9167C13.2917 16.8124 13.3049 16.7111 13.3297 16.6146C13.3049 16.518 13.2917 16.4168 13.2917 16.3125V11.4792C13.2917 10.8118 13.8327 10.2708 14.5 10.2708Z" fill="#FFDEDC"/>
</svg>
