<svg width="29" height="29" viewBox="0 0 29 29" fill="none" xmlns="http://www.w3.org/2000/svg">
<path fill-rule="evenodd" clip-rule="evenodd" d="M9.66683 2.41667C9.66683 1.74933 10.2078 1.20834 10.8752 1.20834H18.1252C18.7925 1.20834 19.3335 1.74933 19.3335 2.41667C19.3335 3.08401 18.7925 3.625 18.1252 3.625H15.7085V4.83334C15.7085 4.85436 15.708 4.87525 15.7069 4.89601C21.4795 5.49907 25.9793 10.3803 25.9793 16.3125C25.9793 22.6523 20.8399 27.7917 14.5002 27.7917C8.16039 27.7917 3.021 22.6523 3.021 16.3125C3.021 10.3803 7.52086 5.49907 13.2934 4.89601C13.2924 4.87525 13.2918 4.85436 13.2918 4.83334V3.625H10.8752C10.2078 3.625 9.66683 3.08401 9.66683 2.41667ZM14.5002 7.25C9.49508 7.25 5.43766 11.3074 5.43766 16.3125C5.43766 21.3176 9.49508 25.375 14.5002 25.375C19.5052 25.375 23.5627 21.3176 23.5627 16.3125C23.5627 11.3074 19.5052 7.25 14.5002 7.25ZM14.5002 10.2708C15.1675 10.2708 15.7085 10.8118 15.7085 11.4792V15.7083H19.3335C20.0008 15.7083 20.5418 16.2493 20.5418 16.9167C20.5418 17.584 20.0008 18.125 19.3335 18.125H14.5002C13.8328 18.125 13.2918 17.584 13.2918 16.9167C13.2918 16.8124 13.305 16.7111 13.3299 16.6146C13.305 16.518 13.2918 16.4168 13.2918 16.3125V11.4792C13.2918 10.8118 13.8328 10.2708 14.5002 10.2708Z" fill="black" fill-opacity="0.8"/>
<path fill-rule="evenodd" clip-rule="evenodd" d="M5.4375 16.3125C5.4375 11.3074 9.49492 7.25 14.5 7.25C19.5051 7.25 23.5625 11.3074 23.5625 16.3125C23.5625 21.3176 19.5051 25.375 14.5 25.375C9.49492 25.375 5.4375 21.3176 5.4375 16.3125ZM14.5 10.2708C15.1673 10.2708 15.7083 10.8118 15.7083 11.4792V15.7083H19.3333C20.0007 15.7083 20.5417 16.2493 20.5417 16.9167C20.5417 17.584 20.0007 18.125 19.3333 18.125H14.5C13.8327 18.125 13.2917 17.584 13.2917 16.9167C13.2917 16.8124 13.3049 16.7111 13.3297 16.6146C13.3049 16.518 13.2917 16.4168 13.2917 16.3125V11.4792C13.2917 10.8118 13.8327 10.2708 14.5 10.2708Z" fill="#91D5FF"/>
</svg>
