<svg width="24" height="24" viewBox="0 0 24 24" fill="none" xmlns="http://www.w3.org/2000/svg">
<path d="M19.466 6.5H10.865C9.80748 6.5 8.84448 7.081 8.35198 8.016L6.77948 11H4.88298H4.73498C2.89248 11 1.37748 12.499 1.35848 14.342L1.33098 16.99C1.32848 17.257 1.43248 17.514 1.62048 17.704C1.80798 17.893 2.06398 18 2.33098 18H3.55698C3.96948 19.1645 5.07698 20 6.38248 20C7.68798 20 8.79598 19.1645 9.20798 18H13.557C13.9695 19.1645 15.077 20 16.3825 20C17.688 20 18.796 19.1645 19.208 18H21C21.552 18 22 17.552 22 17V9.034C22 7.6365 20.8635 6.5 19.466 6.5ZM10.1215 8.948C10.2675 8.672 10.552 8.5 10.865 8.5H19.466C19.7605 8.5 20 8.7395 20 9.034V11H9.04048L10.1215 8.948ZM6.38298 18C5.83148 18 5.38298 17.5515 5.38298 17C5.38298 16.4485 5.83148 16 6.38298 16C6.93448 16 7.38298 16.4485 7.38298 17C7.38298 17.5515 6.93448 18 6.38298 18ZM16.383 18C15.8315 18 15.383 17.5515 15.383 17C15.383 16.4485 15.8315 16 16.383 16C16.9345 16 17.383 16.4485 17.383 17C17.383 17.5515 16.9345 18 16.383 18Z" fill="#585858"/>
</svg>
