<svg width="97" height="95" viewBox="0 0 97 95" fill="none" xmlns="http://www.w3.org/2000/svg">
    <path d="M94.2667 47.5C94.2667 72.6041 73.6371 93 48.1333 93C22.6295 93 2 72.6041 2 47.5C2 22.3959 22.6295 2 48.1333 2C73.6371 2 94.2667 22.3959 94.2667 47.5Z" stroke="url(#paint0_linear_1937_4742)" stroke-width="4"/>
    <path fill-rule="evenodd" clip-rule="evenodd" d="M44.6831 52.2364C45.402 53.3004 46.6193 54 48 54L76 54C78.2092 54 80 52.2092 80 50C80 47.7909 78.2092 46 76 46L52 46L52 22C52 19.7909 50.2091 18 48 18C45.7909 18 44 19.7909 44 22L44 50C44 50.8284 44.2518 51.598 44.6831 52.2364Z" fill="url(#paint1_linear_1937_4742)"/>
    <defs>
    <linearGradient id="paint0_linear_1937_4742" x1="109" y1="-134" x2="16" y2="105" gradientUnits="userSpaceOnUse">
    <stop offset="0.526042" stop-color="#B4EFE4"/>
    <stop offset="1" stop-color="#0A3066"/>
    </linearGradient>
    <linearGradient id="paint1_linear_1937_4742" x1="-28.0001" y1="-18.9972" x2="-27.9286" y2="54.0879" gradientUnits="userSpaceOnUse">
    <stop stop-color="#A1D9D6"/>
    <stop offset="0.791667" stop-color="#0A3066"/>
    </linearGradient>
    </defs>
</svg>
