<svg width="10" height="10" viewBox="0 0 10 10" fill="none" xmlns="http://www.w3.org/2000/svg">
    <path d="M9.96351 4.73747C9.9217 4.55722 9.84567 4.38873 9.73544 4.24766L7.06319 0.830733C6.99097 0.740608 6.57284 0.278225 6.57284 0.278225C6.455 0.125404 6.20032 1.23978e-05 6.01026 1.23978e-05H0.593552C0.0233717 1.23978e-05 -0.17049 0.387943 0.164016 0.865999L2.6614 4.13794C2.99591 4.61208 2.99591 5.39186 2.6614 5.866L0.164016 9.13794C-0.17049 9.61208 0.0233717 10 0.593552 10H6.01026C6.20032 10 6.455 9.87854 6.57664 9.72572C6.57664 9.72572 7.00237 9.26725 7.0746 9.17713L9.72403 5.89343C9.97491 5.58387 10.0547 5.13324 9.96351 4.73355V4.73747Z" fill="#0A3066"/>
</svg>
