<svg width="10" height="10" viewBox="0 0 10 10" fill="none" xmlns="http://www.w3.org/2000/svg">
    <path d="M0.0364918 5.26255C0.0783047 5.4428 0.154329 5.6113 0.264563 5.75236L2.93681 9.16929C3.00903 9.25942 3.42716 9.7218 3.42716 9.7218C3.545 9.87462 3.79968 10 3.98974 10L9.40645 10C9.97663 10 10.1705 9.61208 9.83598 9.13403L7.3386 5.86208C7.00409 5.38795 7.00409 4.60816 7.3386 4.13403L9.83599 0.862084C10.1705 0.387946 9.97663 1.33494e-05 9.40645 1.32996e-05L3.98974 1.2826e-05C3.79968 1.28094e-05 3.545 0.121488 3.42336 0.27431C3.42336 0.27431 2.99763 0.732771 2.9254 0.822896L0.275966 4.1066C0.0250869 4.41616 -0.0547366 4.86678 0.0364918 5.26647L0.0364918 5.26255Z" fill="#0A3066"/>
</svg>
