<svg width="31" height="31" viewBox="0 0 31 31" fill="none" xmlns="http://www.w3.org/2000/svg">
    <g clip-path="url(#clip0_1522_8273)">
    <path d="M0.72016 31C0.546088 31 0.376746 30.9312 0.251159 30.8042C0.0856015 30.6367 0.0217436 30.3936 0.083946 30.1663L2.09925 22.807C0.844565 20.5382 0.183044 17.9715 0.18399 15.3661C0.187538 6.89312 7.08278 0 15.5551 0C19.6644 0.00165558 23.5257 1.60236 26.4279 4.50672C29.3297 7.41132 30.9271 11.2724 30.9259 15.3784C30.9221 23.8517 24.0269 30.7453 15.5551 30.7453C15.5551 30.7453 15.5487 30.7453 15.5484 30.7453C13.0738 30.7443 10.6205 30.1412 8.43609 28.9989L0.887373 30.9785C0.83203 30.9929 0.77574 31 0.72016 31Z" fill="white"/>
    <path d="M0.719727 30.3403L2.8067 22.7192C1.51937 20.4887 0.84224 17.9585 0.843186 15.3663C0.846497 7.2571 7.44564 0.659637 15.5547 0.659637C19.4898 0.661293 23.1834 2.19294 25.9609 4.97288C28.7383 7.75283 30.2674 11.4481 30.2659 15.3782C30.2624 23.4872 23.6623 30.0856 15.5547 30.0856C15.5542 30.0856 15.5549 30.0856 15.5547 30.0856H15.5483C13.0862 30.0846 10.6672 29.4671 8.51846 28.2952L0.719727 30.3403ZM8.87961 25.6328L9.32638 25.8975C11.2033 27.0114 13.3554 27.6006 15.5499 27.6017H15.5547C22.2938 27.6017 27.779 22.1175 27.7819 15.3772C27.783 12.1108 26.5125 9.03921 24.2039 6.72874C21.8951 4.41826 18.8254 3.14513 15.5592 3.14371C8.81457 3.14371 3.32963 8.62721 3.32703 15.3673C3.32608 17.677 3.97223 19.9263 5.19642 21.8727L5.48733 22.3354L4.25179 26.8461L8.87961 25.6328Z" fill="white"/>
    <path d="M1.23145 29.8269L3.24628 22.4693C2.00318 20.3161 1.3497 17.8731 1.35041 15.3711C1.35348 7.54256 7.72438 1.17355 15.5522 1.17355C19.3515 1.17521 22.9174 2.65388 25.5982 5.33757C28.2798 8.02126 29.7556 11.5886 29.7542 15.3822C29.7509 23.211 23.3798 29.5807 15.5529 29.5807C15.5522 29.5807 15.5531 29.5807 15.5529 29.5807H15.5465C13.1698 29.5797 10.8343 28.9833 8.76006 27.8527L1.23145 29.8269Z" fill="#0A3066"/>
    <path d="M0.719727 30.3403L2.8067 22.7192C1.51937 20.4887 0.84224 17.9585 0.843186 15.3663C0.846497 7.2571 7.44564 0.659637 15.5547 0.659637C19.4898 0.661293 23.1834 2.19294 25.9609 4.97288C28.7383 7.75283 30.2674 11.4481 30.2659 15.3782C30.2624 23.4872 23.6623 30.0856 15.5547 30.0856C15.5542 30.0856 15.5549 30.0856 15.5547 30.0856H15.5483C13.0862 30.0846 10.6672 29.4671 8.51846 28.2952L0.719727 30.3403ZM8.87961 25.6328L9.32638 25.8975C11.2033 27.0114 13.3554 27.6006 15.5499 27.6017H15.5547C22.2938 27.6017 27.779 22.1175 27.7819 15.3772C27.783 12.1108 26.5125 9.03921 24.2039 6.72874C21.8951 4.41826 18.8254 3.14513 15.5592 3.14371C8.81457 3.14371 3.32963 8.62721 3.32703 15.3673C3.32608 17.677 3.97223 19.9263 5.19642 21.8727L5.48733 22.3354L4.25179 26.8461L8.87961 25.6328Z" fill="white"/>
    <path fill-rule="evenodd" clip-rule="evenodd" d="M11.8777 9.21804C11.6024 8.60595 11.3124 8.59365 11.0504 8.583C10.8361 8.57378 10.5908 8.57425 10.3461 8.57425C10.101 8.57425 9.70275 8.66649 9.36596 9.03427C9.02893 9.40205 8.0791 10.2913 8.0791 12.0999C8.0791 13.9088 9.39647 15.6564 9.58023 15.9019C9.764 16.1471 12.1232 19.9772 15.8594 21.4507C18.9645 22.6754 19.5962 22.4318 20.2703 22.3705C20.9443 22.3092 22.445 21.4812 22.7513 20.6229C23.0578 19.7646 23.0578 19.029 22.9658 18.8751C22.8738 18.7221 22.6288 18.6301 22.2612 18.4463C21.8937 18.2625 20.0865 17.373 19.7495 17.2505C19.4125 17.1277 19.1674 17.0667 18.9224 17.4347C18.6771 17.8023 17.9733 18.6301 17.7588 18.8751C17.5443 19.1208 17.3297 19.1516 16.9622 18.9676C16.5947 18.7833 15.4107 18.3954 14.0063 17.1431C12.9136 16.1689 12.1757 14.9655 11.9612 14.5975C11.7469 14.23 11.9576 14.0483 12.1227 13.8475C12.42 13.4859 12.9188 12.8357 13.0413 12.5907C13.1638 12.3452 13.1026 12.1307 13.0108 11.9467C12.9188 11.7629 12.2043 9.94508 11.8777 9.21804Z" fill="white"/>
    </g>
    <defs>
    <clipPath id="clip0_1522_8273">
    <rect width="31" height="31" fill="white"/>
    </clipPath>
    </defs>
</svg>
