<svg width="26" height="26" viewBox="0 0 26 26" fill="none" xmlns="http://www.w3.org/2000/svg">
<path d="M21.7344 0.25H4.15625C3.1206 0.251131 2.12768 0.663044 1.39536 1.39536C0.663044 2.12768 0.251131 3.1206 0.25 4.15625V21.7344C0.251131 22.77 0.663044 23.7629 1.39536 24.4953C2.12768 25.2276 3.1206 25.6395 4.15625 25.6406H21.7344C22.77 25.6395 23.7629 25.2276 24.4953 24.4953C25.2276 23.7629 25.6395 22.77 25.6406 21.7344V4.15625C25.6395 3.1206 25.2276 2.12768 24.4953 1.39536C23.7629 0.663044 22.77 0.251131 21.7344 0.25ZM19.5524 8.69055L11.3492 18.4562C11.2593 18.5634 11.1473 18.6499 11.0209 18.7101C10.8946 18.7702 10.7567 18.8025 10.6168 18.8047H10.6003C10.4635 18.8046 10.3281 18.7758 10.2031 18.7201C10.0781 18.6644 9.96617 18.583 9.87463 18.4812L6.35901 14.575C6.26972 14.4803 6.20027 14.3687 6.15473 14.2467C6.10919 14.1248 6.08848 13.995 6.09381 13.865C6.09915 13.7349 6.13043 13.6073 6.18581 13.4895C6.24119 13.3717 6.31956 13.2662 6.4163 13.1791C6.51305 13.0921 6.62622 13.0252 6.74917 12.9825C6.87212 12.9398 7.00236 12.9221 7.13224 12.9305C7.26213 12.9388 7.38903 12.9731 7.50549 13.0312C7.62196 13.0893 7.72563 13.1701 7.81042 13.2688L10.5747 16.3401L18.057 7.43445C18.2248 7.24041 18.4623 7.1202 18.718 7.09982C18.9738 7.07944 19.2273 7.16052 19.4237 7.32554C19.6202 7.49056 19.7438 7.72625 19.7679 7.98168C19.7919 8.2371 19.7145 8.49174 19.5524 8.69055Z" fill="#00AF12"/>
</svg>
