<svg width="20" height="20" viewBox="0 0 20 20" fill="none" xmlns="http://www.w3.org/2000/svg">
    <circle cx="10" cy="10" r="10" fill="#0A3066"/>
    <path d="M6.99273 15V13.922L10.2827 10.394C10.7401 9.89933 11.0667 9.45133 11.2627 9.05C11.4681 8.64867 11.5707 8.24267 11.5707 7.832C11.5707 6.768 10.9454 6.236 9.69473 6.236C8.74273 6.236 7.88873 6.59533 7.13273 7.314L6.61473 6.208C6.98807 5.844 7.46407 5.55467 8.04273 5.34C8.6214 5.116 9.2234 5.004 9.84873 5.004C10.8661 5.004 11.6454 5.23733 12.1867 5.704C12.7374 6.17067 13.0127 6.838 13.0127 7.706C13.0127 8.294 12.8681 8.868 12.5787 9.428C12.2987 9.988 11.8554 10.5853 11.2487 11.22L8.81273 13.782H13.4047V15H6.99273Z" fill="white"/>
</svg>
