<svg width="242" height="68" viewBox="0 0 242 68" fill="none" xmlns="http://www.w3.org/2000/svg">
<g filter="url(#filter0_d_316_2235)">
<rect x="4" width="234" height="60" rx="30" fill="white"/>
<path d="M86.1045 16.0031L82.2507 36.2104C81.9111 38.0292 81.6146 40.0795 81.5096 41.7748H78.7521L79.2215 38.3009H79.1474C77.5448 40.7898 75.3369 42.1731 72.8141 42.1731C69.4297 42.1731 67.5708 39.3909 67.5708 35.7843C67.5708 29.5436 72.2089 23.8186 78.431 23.8186C79.5334 23.8186 80.7716 24.0564 81.5312 24.4207L83.1061 16H86.1045V16.0031ZM81.0526 26.9714C80.4443 26.5576 79.4407 26.2241 78.1809 26.2241C73.9689 26.2241 70.6927 30.7108 70.6927 35.3736C70.6927 37.498 71.4183 39.7059 74.006 39.7059C76.3158 39.7059 79.1227 37.0627 79.8792 33.1101L81.0526 26.9714Z" fill="#0A3066"/>
<path d="M99.1509 40.7682C97.8231 41.5123 95.7017 42.1546 93.3487 42.1546C88.6829 42.1546 86.6696 38.9772 86.6696 35.0895C86.6696 29.803 90.5974 23.8186 96.2483 23.8186C99.5894 23.8186 101.402 25.8103 101.402 28.3208C101.402 32.931 96.2081 34.1446 89.7173 34.0241C89.5691 34.7838 89.6741 36.4235 90.0724 37.3653C90.7796 38.9463 92.1722 39.7244 93.9787 39.7244C96.0661 39.7244 97.6316 39.1038 98.7093 38.5201L99.1509 40.7682ZM95.8221 26.1623C92.9565 26.1623 90.7919 28.9631 90.057 31.7082C94.7877 31.7638 98.4932 31.1339 98.4932 28.398C98.4932 26.9559 97.3908 26.1623 95.8221 26.1623Z" fill="#0A3066"/>
<path d="M121.64 24.01L119.38 35.9911C118.938 38.2391 118.66 40.1845 118.429 41.7778H113.809L114.136 38.8907L114.062 38.8752C112.241 41.1881 110.085 42.1762 107.948 42.1762C105.107 42.1762 103.387 40.5612 103.387 37.2077C103.387 36.232 103.508 35.1605 103.743 33.9346L105.626 24.01H110.851L109.054 33.5208C108.902 34.3422 108.785 35.2161 108.785 35.8707C108.785 37.007 109.251 37.921 110.576 37.921C112.342 37.921 114.18 35.7873 114.856 32.2455L116.412 24.01H121.64Z" fill="#0A3066"/>
<path d="M123.375 37.1059C124.385 37.6092 126.29 38.3411 128.004 38.3349C129.477 38.3287 130.243 37.6092 130.243 36.7199C130.243 35.8491 129.669 35.2501 128.029 34.4441C125.985 33.4405 124.271 31.9306 124.271 29.7289C124.271 26.0481 127.507 23.6086 132.077 23.6086C134.149 23.6086 135.77 24.0348 136.638 24.5227L135.394 28.2189C134.646 27.873 133.399 27.4438 131.846 27.4438C130.462 27.4438 129.539 28.0429 129.539 29.0001C129.539 29.7382 130.262 30.3434 131.701 31.0412C133.634 32.0294 135.675 33.4282 135.675 35.8923C135.675 39.9591 132.222 42.1546 127.519 42.1546C125.278 42.1546 123.147 41.5371 122.103 40.7651L123.375 37.1059Z" fill="#0A3066"/>
<path d="M149.401 41.7749C149.441 40.7405 149.539 39.5238 149.632 38.2578H149.546C147.915 41.2098 145.636 42.1763 143.571 42.1763C140.39 42.1763 138.194 39.6998 138.194 35.9912C138.194 30.0069 142.175 23.6118 150.91 23.6118C153.029 23.6118 155.298 24.0287 156.781 24.5042L154.909 33.7927C154.474 36.0777 154.134 39.564 154.196 41.7811H149.401V41.7749ZM150.914 27.7342C150.515 27.6415 150.012 27.5829 149.484 27.5829C146.103 27.5829 143.645 31.7207 143.638 35.0217C143.635 36.7663 144.343 37.9644 145.785 37.9644C147.344 37.9644 149.28 36.1827 150.089 31.8349L150.914 27.7342Z" fill="#0A3066"/>
<path d="M178.714 16.0031L175.12 34.8826C174.687 37.1491 174.376 39.6781 174.283 41.7748H169.5L169.756 38.8938H169.685C168.129 41.2529 165.949 42.1731 163.87 42.1731C160.854 42.1731 158.377 39.7924 158.377 35.4724C158.377 29.2935 162.824 23.6055 169.543 23.6055C170.269 23.6055 171.207 23.7414 171.961 24.0348L173.514 16H178.714V16.0031ZM171.223 28.2158C170.794 27.8699 170.012 27.5982 169.151 27.5982C166.023 27.5982 163.809 31.208 163.809 34.6201C163.809 36.7631 164.738 37.9674 166.254 37.9674C167.764 37.9674 169.605 36.3771 170.29 32.9773L171.223 28.2158Z" fill="#0A3066"/>
<path d="M196.951 30.9332C196.951 37.4085 192.495 42.1763 186.347 42.1763C181.827 42.1763 178.81 39.2551 178.81 34.8301C178.81 28.6882 183.111 23.6086 189.414 23.6086C194.191 23.6086 196.951 26.8756 196.951 30.9332ZM184.223 34.7251C184.223 36.8033 185.26 38.1867 187.082 38.1867C189.92 38.1867 191.544 33.9933 191.544 30.9733C191.544 29.3213 190.828 27.5951 188.75 27.5951C185.733 27.5982 184.214 31.9769 184.223 34.7251Z" fill="#0A3066"/>
<path d="M199.171 37.1059C200.181 37.6092 202.086 38.3411 203.8 38.3349C205.273 38.3287 206.039 37.6092 206.039 36.7199C206.039 35.8491 205.465 35.2501 203.825 34.4441C201.781 33.4405 200.067 31.9306 200.067 29.7289C200.067 26.0481 203.303 23.6086 207.873 23.6086C209.945 23.6086 211.566 24.0348 212.434 24.5227L211.19 28.2189C210.442 27.873 209.195 27.4438 207.642 27.4438C206.258 27.4438 205.335 28.0429 205.335 29.0001C205.335 29.7382 206.057 30.3434 207.496 31.0412C209.429 32.0294 211.471 33.4282 211.471 35.8923C211.471 39.9591 208.018 42.1546 203.315 42.1546C201.074 42.1546 198.943 41.5371 197.899 40.7651L199.171 37.1059Z" fill="#0A3066"/>
<path d="M56.8064 28.4134C56.6952 27.944 56.4914 27.5056 56.1919 27.135L49.0001 18.2202C48.8087 17.9855 47.6847 16.7751 47.6847 16.7751C47.3635 16.3767 46.6842 16.0525 46.1716 16.0525H44.4671H38.1338H31.5936C30.0589 16.0525 29.5432 17.0684 30.4418 18.3067L37.1642 26.8478C38.0628 28.0892 38.0628 30.1179 37.1642 31.3593L30.4418 39.9004C29.5432 41.1418 30.0589 42.1546 31.5936 42.1546H38.1338H38.5198H44.4671H46.1716C46.6811 42.1546 47.3666 41.8335 47.694 41.4413C47.694 41.4413 48.8396 40.2494 49.031 40.0147L56.161 31.4426C56.8373 30.6305 57.0534 29.454 56.8064 28.4134Z" fill="#0A3066"/>
</g>
<defs>
<filter id="filter0_d_316_2235" x="0" y="0" width="242" height="68" filterUnits="userSpaceOnUse" color-interpolation-filters="sRGB">
<feFlood flood-opacity="0" result="BackgroundImageFix"/>
<feColorMatrix in="SourceAlpha" type="matrix" values="0 0 0 0 0 0 0 0 0 0 0 0 0 0 0 0 0 0 127 0" result="hardAlpha"/>
<feOffset dy="4"/>
<feGaussianBlur stdDeviation="2"/>
<feComposite in2="hardAlpha" operator="out"/>
<feColorMatrix type="matrix" values="0 0 0 0 0 0 0 0 0 0 0 0 0 0 0 0 0 0 0.25 0"/>
<feBlend mode="normal" in2="BackgroundImageFix" result="effect1_dropShadow_316_2235"/>
<feBlend mode="normal" in="SourceGraphic" in2="effect1_dropShadow_316_2235" result="shape"/>
</filter>
</defs>
</svg>
