<svg width="36" height="36" viewBox="0 0 36 36" fill="none" xmlns="http://www.w3.org/2000/svg">
<circle cx="18" cy="18" r="18" fill="url(#paint0_linear_92_2)"/>
<path d="M17.8014 9.00082C20.6872 9.00082 21.026 9.01404 22.1666 9.06693C23.2214 9.1154 23.7917 9.2961 24.1734 9.45034C24.6794 9.65307 25.0396 9.89105 25.4169 10.2789C25.7942 10.6667 26.0301 11.0369 26.223 11.5569C26.3688 11.9492 26.5489 12.5353 26.5961 13.6195C26.6475 14.7917 26.6604 15.1399 26.6604 18.1059C26.6604 21.0718 26.6475 21.42 26.5961 22.5923C26.5489 23.6764 26.3731 24.2626 26.223 24.6548C26.0258 25.1749 25.7942 25.545 25.4169 25.9329C25.0396 26.3207 24.6794 26.5631 24.1734 26.7614C23.7917 26.9112 23.2214 27.0963 22.1666 27.1448C21.026 27.1977 20.6872 27.2109 17.8014 27.2109C14.9156 27.2109 14.5769 27.1977 13.4363 27.1448C12.3814 27.0963 11.8111 26.9157 11.4295 26.7614C10.9235 26.5587 10.5633 26.3207 10.186 25.9329C9.80863 25.545 9.57279 25.1749 9.37983 24.6548C9.23404 24.2626 9.05395 23.6764 9.00678 22.5923C8.95532 21.42 8.94246 21.0718 8.94246 18.1059C8.94246 15.1399 8.95532 14.7917 9.00678 13.6195C9.05395 12.5353 9.22975 11.9492 9.37983 11.5569C9.57708 11.0369 9.80863 10.6667 10.186 10.2789C10.5633 9.89105 10.9235 9.64866 11.4295 9.45034C11.8111 9.3005 12.3814 9.1154 13.4363 9.06693C14.5769 9.00963 14.9199 9.00082 17.8014 9.00082ZM17.8014 7C14.8685 7 14.4997 7.01322 13.3462 7.06611C12.197 7.11899 11.4123 7.3085 10.7263 7.58174C10.0145 7.86379 9.41414 8.24721 8.81382 8.8642C8.2135 9.48119 7.84473 10.1026 7.56601 10.8298C7.30016 11.5349 7.11578 12.3414 7.06432 13.5269C7.01286 14.708 7 15.087 7 18.1015C7 21.1159 7.01286 21.4949 7.06432 22.6804C7.11578 23.8615 7.30016 24.668 7.56601 25.3776C7.84045 26.1092 8.2135 26.7262 8.81382 27.3431C9.41414 27.9601 10.0187 28.3391 10.7263 28.6256C11.4123 28.8988 12.197 29.0884 13.3505 29.1412C14.504 29.1941 14.8685 29.2073 17.8057 29.2073C20.743 29.2073 21.1075 29.1941 22.2609 29.1412C23.4101 29.0884 24.1948 28.8988 24.8852 28.6256C25.597 28.3436 26.1973 27.9601 26.7976 27.3431C27.3979 26.7262 27.7667 26.1047 28.0454 25.3776C28.3113 24.6724 28.4957 23.8659 28.5471 22.6804C28.5986 21.4949 28.6114 21.1203 28.6114 18.1015C28.6114 15.0826 28.5986 14.708 28.5471 13.5225C28.4957 12.3414 28.3113 11.5349 28.0454 10.8254C27.771 10.0938 27.3979 9.47679 26.7976 8.85979C26.1973 8.2428 25.5927 7.86379 24.8852 7.57733C24.1991 7.30409 23.4144 7.11458 22.2609 7.0617C21.1032 7.01322 20.7344 7 17.8014 7Z" fill="#0A3066"/>
<path d="M17.8016 12.4033C14.74 12.4033 12.2529 14.955 12.2529 18.1061C12.2529 21.2572 14.7357 23.8089 17.8016 23.8089C20.8675 23.8089 23.3502 21.2572 23.3502 18.1061C23.3502 14.955 20.8675 12.4033 17.8016 12.4033ZM17.8016 21.8036C15.812 21.8036 14.1997 20.1466 14.1997 18.1017C14.1997 16.0568 15.812 14.3997 17.8016 14.3997C19.7912 14.3997 21.4035 16.0568 21.4035 18.1017C21.4035 20.1466 19.7912 21.8036 17.8016 21.8036Z" fill="#0A3066"/>
<path d="M23.5689 13.5047C24.2841 13.5047 24.8639 12.9088 24.8639 12.1737C24.8639 11.4387 24.2841 10.8428 23.5689 10.8428C22.8537 10.8428 22.2739 11.4387 22.2739 12.1737C22.2739 12.9088 22.8537 13.5047 23.5689 13.5047Z" fill="#0A3066"/>
<defs>
<linearGradient id="paint0_linear_92_2" x1="18" y1="0" x2="18" y2="36" gradientUnits="userSpaceOnUse">
<stop stop-color="#B4EFE4"/>
<stop offset="1" stop-color="#E1BBEA"/>
</linearGradient>
</defs>
</svg>
