<svg width="36" height="36" viewBox="0 0 36 36" fill="none" xmlns="http://www.w3.org/2000/svg">
<circle cx="18" cy="18" r="18" fill="url(#paint0_linear_92_2)"/>
<path d="M26.3384 8H9.46163C9.07398 8 8.70221 8.15827 8.4281 8.43999C8.15399 8.72171 8 9.10381 8 9.50223V26.8478C8 27.2462 8.15399 27.6283 8.4281 27.91C8.70221 28.1917 9.07398 28.35 9.46163 28.35H26.3384C26.726 28.35 27.0978 28.1917 27.3719 27.91C27.646 27.6283 27.8 27.2462 27.8 26.8478V9.50223C27.8 9.10381 27.646 8.72171 27.3719 8.43999C27.0978 8.15827 26.726 8 26.3384 8ZM13.9015 25.3357H10.9246V15.6171H13.9015V25.3357ZM12.411 14.2703C12.0733 14.2684 11.7438 14.1637 11.464 13.9694C11.1841 13.7751 10.9666 13.5 10.8387 13.1788C10.7109 12.8576 10.6785 12.5046 10.7456 12.1645C10.8128 11.8244 10.9764 11.5123 11.216 11.2677C11.4555 11.0231 11.7602 10.8569 12.0916 10.79C12.4229 10.7232 12.7661 10.7588 13.0778 10.8922C13.3896 11.0257 13.6558 11.2511 13.843 11.5399C14.0302 11.8287 14.13 12.1681 14.1298 12.5152C14.1329 12.7475 14.0906 12.9782 14.0052 13.1933C13.9198 13.4085 13.7931 13.6038 13.6327 13.7676C13.4724 13.9314 13.2815 14.0603 13.0716 14.1467C12.8617 14.2331 12.6371 14.2751 12.411 14.2703ZM24.874 25.3441H21.8985V20.0348C21.8985 18.4689 21.2509 17.9856 20.4149 17.9856C19.5321 17.9856 18.6659 18.6696 18.6659 20.0743V25.3441H15.689V15.6242H18.5518V16.971H18.5903C18.8776 16.3732 19.8841 15.3514 21.42 15.3514C23.081 15.3514 24.8754 16.3647 24.8754 19.3324L24.874 25.3441Z" fill="#0A3066"/>
<defs>
<linearGradient id="paint0_linear_92_2" x1="18" y1="0" x2="18" y2="36" gradientUnits="userSpaceOnUse">
<stop stop-color="#B4EFE4"/>
<stop offset="1" stop-color="#E1BBEA"/>
</linearGradient>
</defs>
</svg>
