<svg width="172" height="35" viewBox="0 0 172 35" fill="none" xmlns="http://www.w3.org/2000/svg">
<g opacity="0.5">
<g opacity="0.5">
<path opacity="0.5" d="M26.1062 10.4416L19.7596 2.57842C19.5896 2.37176 18.5996 1.30511 18.5996 1.30511C18.3163 0.955119 17.7163 0.668457 17.2663 0.668457H15.763H8.48316H1.40663C0.0533221 0.668457 -0.403336 1.56511 0.389983 2.65842L6.31987 10.1916C7.10985 11.2849 7.10985 13.0749 6.31987 14.1715L0.389983 21.7047C-0.403336 22.798 0.0533221 23.6947 1.40663 23.6947H8.48316H15.763H17.2663C17.7163 23.6947 18.3196 23.4114 18.6096 23.0647C18.6096 23.0647 19.6196 22.0114 19.7896 21.8047L26.0795 14.2449C26.9428 13.2016 26.9561 11.4916 26.1062 10.4416Z" fill="white"/>
</g>
</g>
<path d="M26.1096 10.4416L19.763 2.57842C19.593 2.37176 18.603 1.30511 18.603 1.30511C18.3197 0.955119 17.7197 0.668457 17.2697 0.668457H15.7664H10.1799H4.4133C3.05999 0.668457 2.60334 1.56511 3.39665 2.65842L9.32654 10.1916C10.1199 11.2849 10.1199 13.0749 9.32654 14.1715L3.39665 21.7047C2.60334 22.798 3.05999 23.6947 4.4133 23.6947H10.1799H15.7664H17.2697C17.7197 23.6947 18.3264 23.4114 18.613 23.0647C18.613 23.0647 19.623 22.0114 19.793 21.8047L26.0829 14.2449C26.9462 13.2016 26.9595 11.4916 26.1096 10.4416Z" fill="white"/>
<g opacity="0.5">
<g opacity="0.5">
<path opacity="0.5" d="M30.8494 25.0676C30.0594 23.9743 30.0594 22.1843 30.8494 21.0877L36.7793 13.5545C37.5726 12.4612 37.116 11.5679 35.7627 11.5679H32.7561C34.1094 11.5679 34.566 12.4612 33.7727 13.5545L27.8428 21.0877C27.0528 22.181 27.0528 23.971 27.8428 25.0676L33.7727 32.6008C34.566 33.6941 34.1094 34.5908 32.7561 34.5908H35.7627C37.116 34.5908 37.5726 33.6941 36.7793 32.6008L30.8494 25.0676Z" fill="white"/>
</g>
</g>
<path d="M33.7761 32.6007L27.8462 25.0675C27.0562 23.9742 27.0562 22.1843 27.8462 21.0876L33.7761 13.5544C34.5694 12.4611 34.1128 11.5645 32.7594 11.5645H28.6862H26.9896H21.4063H21.403H19.903C19.453 11.5645 18.8497 11.8478 18.563 12.1944C18.563 12.1944 17.5531 13.2478 17.3831 13.4511L11.0932 21.0143C10.2299 22.0543 10.2165 23.7609 11.0665 24.8142L17.4131 32.6774C17.5831 32.884 18.5764 33.9507 18.5764 33.9507C18.8597 34.3007 19.4597 34.5873 19.9097 34.5873H21.4097H21.413H26.9962H28.6929H32.7661C34.1128 34.5907 34.5694 33.6974 33.7761 32.6007Z" fill="white"/>
<path d="M60.9821 6.1884L58.2388 20.6048C57.9055 22.3248 57.6555 24.2647 57.5989 25.8713H53.9389L54.1322 23.6814H54.0756C52.8823 25.4847 51.219 26.178 49.6423 26.178C47.339 26.178 45.4258 24.348 45.4258 21.0481C45.4258 16.3349 48.8357 12.0083 53.9656 12.0083C54.5189 12.0083 55.2422 12.0916 55.8222 12.3116L56.9855 6.18506H60.9821V6.1884ZM55.2422 15.5049C54.9356 15.2549 54.3256 15.0349 53.6623 15.0349C51.279 15.0349 49.5857 17.8082 49.5857 20.4115C49.5857 22.0481 50.3057 22.9614 51.469 22.9614C52.6056 22.9614 54.0189 21.7414 54.5489 19.1615L55.2422 15.5049Z" fill="white"/>
<path d="M71.6553 25.0946C70.0753 25.9013 68.1054 26.1746 66.6087 26.1746C62.7255 26.1746 60.7322 23.9546 60.7322 20.4347C60.7322 16.3048 63.7255 12.0049 68.632 12.0049C71.3787 12.0049 73.3453 13.5315 73.3453 16.0515C73.3453 19.5181 69.992 20.7647 64.5555 20.628C64.5555 21.0147 64.6921 21.6247 64.9688 22.0147C65.4954 22.708 66.4121 23.068 67.5754 23.068C69.0454 23.068 70.292 22.7347 71.3753 22.208L71.6553 25.0946ZM69.602 16.0581C69.602 15.3915 69.0454 14.9215 68.1321 14.9215C66.2721 14.9215 65.2188 16.4481 64.9421 17.7214C68.0487 17.7481 69.602 17.3048 69.602 16.0848V16.0581Z" fill="white"/>
<path d="M84.0484 25.458C83.1884 25.8747 81.8017 26.178 80.1951 26.178C76.8385 26.178 74.4819 24.1247 74.4819 20.6048C74.4819 15.7816 78.1685 12.0083 83.3284 12.0083C84.4917 12.0083 85.4883 12.2316 86.0717 12.4516L85.1017 15.5282C84.6317 15.3349 84.075 15.1949 83.2717 15.1949C80.4151 15.1949 78.6685 17.6049 78.6685 20.1581C78.6685 22.0148 79.8318 22.9581 81.3284 22.9581C82.4917 22.9581 83.325 22.6814 84.0184 22.4048L84.0484 25.458Z" fill="white"/>
<path d="M85.9049 25.8714L87.4316 17.8015C87.8182 15.7516 87.9882 13.4783 88.1249 12.3116H91.5915C91.5082 13.2283 91.4248 14.1416 91.3415 15.0849H91.4248C92.3681 13.2849 93.8915 12.0083 95.7514 12.0083C96.0014 12.0083 96.2514 12.0083 96.5014 12.035L95.7247 15.9182C95.5314 15.9182 95.3081 15.8916 95.0881 15.8916C92.5381 15.8916 91.3448 18.1649 90.8448 20.8281L89.9049 25.8714H85.9049Z" fill="white"/>
<path d="M107.225 25.0946C105.645 25.9013 103.678 26.1746 102.178 26.1746C98.2981 26.1746 96.3015 23.9546 96.3015 20.4347C96.3015 16.3048 99.2981 12.0049 104.205 12.0049C106.948 12.0049 108.918 13.5315 108.918 16.0515C108.918 19.5181 105.561 20.7647 100.128 20.628C100.128 21.0147 100.268 21.6247 100.545 22.0147C101.071 22.708 101.985 23.068 103.148 23.068C104.618 23.068 105.865 22.7347 106.948 22.208L107.225 25.0946ZM105.175 16.0581C105.175 15.3915 104.621 14.9215 103.708 14.9215C101.848 14.9215 100.795 16.4481 100.518 17.7214C103.628 17.7481 105.175 17.3048 105.175 16.0848V16.0581Z" fill="white"/>
<path d="M125.524 6.1884L122.781 20.6048C122.448 22.3248 122.198 24.2647 122.141 25.8713H118.481L118.674 23.6814H118.621C117.428 25.4847 115.764 26.178 114.184 26.178C111.881 26.178 109.971 24.348 109.971 21.0481C109.971 16.3349 113.381 12.0083 118.508 12.0083C119.064 12.0083 119.784 12.0916 120.364 12.3116L121.531 6.18506H125.524V6.1884ZM119.788 15.5049C119.481 15.2549 118.871 15.0349 118.204 15.0349C115.821 15.0349 114.128 17.8082 114.128 20.4115C114.128 22.0481 114.851 22.9614 116.014 22.9614C117.151 22.9614 118.564 21.7414 119.091 19.1615L119.788 15.5049Z" fill="white"/>
<path d="M124.858 25.8712L127.438 12.3148H131.431L128.854 25.8712H124.858ZM129.904 10.6249C128.821 10.6249 127.991 9.87488 127.991 8.6849C128.018 7.32826 129.074 6.41162 130.294 6.41162C131.458 6.41162 132.291 7.18826 132.291 8.38157C132.291 9.79488 131.208 10.6282 129.931 10.6282H129.904V10.6249Z" fill="white"/>
<path d="M139.581 8.62842L138.887 12.315H141.771L141.191 15.3383H138.307L137.394 19.9415C137.284 20.4682 137.171 21.1882 137.171 21.6582C137.171 22.3248 137.447 22.7948 138.307 22.7948C138.667 22.7948 139.057 22.7948 139.417 22.7415L138.947 25.8747C138.447 26.0681 137.447 26.1814 136.591 26.1814C134.204 26.1814 133.067 24.9348 133.067 23.2415C133.067 22.4915 133.154 21.7715 133.347 20.7182L134.401 15.3383H132.684L133.237 12.315H134.987L135.487 9.76506L139.581 8.62842Z" fill="white"/>
<path d="M155.467 17.5816C155.467 22.5448 152.084 26.1781 147.374 26.1781C143.934 26.1781 141.634 23.9315 141.634 20.5782C141.634 15.865 144.907 12.0117 149.73 12.0117C153.36 12.0117 155.467 14.505 155.467 17.5816ZM145.764 20.4949C145.764 22.0749 146.541 23.1282 147.927 23.1282C150.12 23.1282 151.337 19.9416 151.337 17.6116C151.337 16.365 150.81 15.035 149.204 15.035C146.901 15.0317 145.737 18.3883 145.764 20.4949Z" fill="white"/>
<path d="M156.88 22.2949C157.657 22.6848 159.127 23.2382 160.43 23.2382C161.567 23.2382 162.15 22.6848 162.15 22.0182C162.15 21.3515 161.704 20.8815 160.457 20.2716C158.877 19.4949 157.574 18.3583 157.574 16.6683C157.574 13.8684 160.04 12.0117 163.534 12.0117C165.113 12.0117 166.36 12.315 167.027 12.705L166.087 15.5317C165.503 15.255 164.56 14.9217 163.37 14.9217C162.317 14.9217 161.594 15.3917 161.594 16.115C161.594 16.6683 162.15 17.1416 163.257 17.6683C164.727 18.4149 166.28 19.4982 166.28 21.3815C166.28 24.4848 163.647 26.2048 160.07 26.1781C158.35 26.1248 156.717 25.7081 155.914 25.0981L156.88 22.2949Z" fill="white"/>
<path d="M170.103 10.4883C171.16 10.4883 172 11.3183 172 12.3416C172 13.3749 171.16 14.2049 170.097 14.2049C169.03 14.2049 168.167 13.3782 168.167 12.3416C168.167 11.3183 169.03 10.4883 170.097 10.4883H170.103ZM170.07 10.9516C169.307 10.9516 168.737 11.5649 168.737 12.3516C168.737 13.1182 169.31 13.7416 170.083 13.7416C170.86 13.7516 171.43 13.1149 171.43 12.3383C171.43 11.5616 170.86 10.9483 170.083 10.9483H170.07V10.9516ZM169.857 13.2249H169.317V11.5116C169.433 11.4916 169.727 11.4483 170.07 11.4483C170.47 11.4483 170.63 11.5016 170.763 11.5883C170.87 11.6649 170.943 11.7916 170.943 11.9649C170.943 12.1382 170.793 12.2882 170.557 12.3516V12.3749C170.74 12.4282 170.847 12.5682 170.9 12.8149C170.953 13.0616 170.997 13.1582 171.02 13.2249H170.44C170.383 13.1616 170.353 13.0082 170.31 12.8582C170.277 12.6849 170.19 12.5982 170.017 12.5982H169.857V13.2249ZM169.867 12.2449H170.017C170.223 12.2449 170.34 12.1583 170.34 12.0416C170.34 11.9016 170.223 11.8283 170.047 11.8283C169.97 11.8283 169.907 11.8383 169.863 11.8383V12.2449H169.867Z" fill="white"/>
</svg>
