<svg width="187" height="28" viewBox="0 0 187 28" fill="none" xmlns="http://www.w3.org/2000/svg">
<path d="M54.0608 1.35669L50.1834 21.6949C49.8404 23.5245 49.5441 25.5879 49.4402 27.2979H46.6647L47.1376 23.8052H47.0649C45.4536 26.3104 43.229 27.7034 40.6926 27.7034C37.2882 27.7034 35.417 24.9019 35.417 21.2739C35.417 14.99 40.0845 9.23108 46.3476 9.23108C47.4547 9.23108 48.7021 9.47016 49.4662 9.83399L51.0514 1.36189H54.0608V1.35669ZM48.9776 12.3964C48.3643 11.9806 47.3559 11.6427 46.0877 11.6427C41.8465 11.6427 38.5512 16.1595 38.5512 20.8529C38.5512 22.9943 39.2788 25.2137 41.8829 25.2137C44.2062 25.2137 47.0337 22.5525 47.7925 18.5764L48.9776 12.3964Z" fill="#FFDEDC"/>
<path d="M67.19 26.2844C65.8542 27.0328 63.718 27.6825 61.3478 27.6825C56.6544 27.6825 54.6273 24.486 54.6273 20.5722C54.6273 15.2499 58.5775 9.22583 64.2689 9.22583C67.6318 9.22583 69.4561 11.2321 69.4561 13.7581C69.4561 18.3996 64.2273 19.6211 57.6939 19.4963C57.5484 20.2604 57.6523 21.908 58.0525 22.8591C58.7646 24.4496 60.168 25.2345 61.982 25.2345C64.0818 25.2345 65.6567 24.6107 66.743 24.0234L67.19 26.2844ZM63.8427 11.5855C60.958 11.5855 58.7802 14.4026 58.0422 17.1678C62.8032 17.2249 66.5299 16.5908 66.5299 13.8361C66.5299 12.3808 65.4176 11.5855 63.8427 11.5855Z" fill="#FFDEDC"/>
<path d="M90.86 8.48267L88.4639 21.17C87.9961 23.5505 87.705 25.614 87.4555 27.298H82.5646L82.9128 24.2366L82.8348 24.221C80.9065 26.6691 78.6248 27.719 76.3586 27.719C73.3492 27.719 71.53 26.009 71.53 22.459C71.53 21.4247 71.66 20.2916 71.9043 18.9922L73.9002 8.48267H79.4356L77.5333 18.5556C77.3722 19.4236 77.2474 20.354 77.2474 21.0401C77.2474 22.2459 77.7412 23.2127 79.1445 23.2127C81.0157 23.2127 82.9596 20.9517 83.6769 17.2042L85.3245 8.48267H90.86Z" fill="#FFDEDC"/>
<path d="M92.6999 22.3497C93.7706 22.885 95.7873 23.6595 97.6012 23.6491C99.1605 23.6439 99.9713 22.8798 99.9713 21.939C99.9713 21.019 99.3632 20.3798 97.6272 19.5274C95.4598 18.4618 93.6458 16.8662 93.6458 14.5324C93.6458 10.6342 97.0711 8.05103 101.91 8.05103C104.103 8.05103 105.819 8.50321 106.739 9.02298L105.424 12.9368C104.634 12.5678 103.313 12.1156 101.666 12.1156C100.2 12.1156 99.2229 12.7497 99.2229 13.7632C99.2229 14.548 99.9869 15.1822 101.51 15.9254C103.558 16.9701 105.72 18.4514 105.72 21.0606C105.72 25.3642 102.066 27.6928 97.0815 27.6928C94.7062 27.6928 92.4504 27.0379 91.3433 26.2219L92.6999 22.3497Z" fill="#FFDEDC"/>
<path d="M120.258 27.2979C120.299 26.2012 120.403 24.9122 120.502 23.5712H120.408C118.683 26.695 116.271 27.719 114.083 27.719C110.715 27.719 108.391 25.0993 108.391 21.17C108.391 14.8341 112.607 8.0564 121.858 8.0564C124.099 8.0564 126.505 8.4982 128.075 9.00237L126.094 18.8362C125.632 21.2583 125.273 24.9486 125.341 27.2928H120.258V27.2979ZM121.858 12.4224C121.437 12.3236 120.902 12.2612 120.346 12.2612C116.765 12.2612 114.161 16.6428 114.156 20.1408C114.15 21.9912 114.904 23.2594 116.427 23.2594C118.08 23.2594 120.128 21.3727 120.985 16.7676L121.858 12.4224Z" fill="#FFDEDC"/>
<path d="M151.298 0.00520269L147.488 20.0004C147.03 22.4017 146.703 25.0784 146.599 27.2978H141.531L141.802 24.2468H141.724C140.076 26.7469 137.768 27.7189 135.565 27.7189C132.368 27.7189 129.748 25.198 129.748 20.6241C129.748 14.0803 134.457 8.0563 141.573 8.0563C142.342 8.0563 143.335 8.19663 144.135 8.50849L145.778 0H151.298V0.00520269ZM143.366 12.9369C142.909 12.5678 142.088 12.282 141.173 12.282C137.857 12.282 135.518 16.1074 135.518 19.7197C135.518 21.9911 136.5 23.2645 138.106 23.2645C139.702 23.2645 141.656 21.5805 142.379 17.9837L143.366 12.9369Z" fill="#FFDEDC"/>
<path d="M170.612 15.8112C170.612 22.6721 165.893 27.719 159.385 27.719C154.598 27.719 151.402 24.6212 151.402 19.9381C151.402 13.4359 155.955 8.0564 162.634 8.0564C167.691 8.0564 170.612 11.518 170.612 15.8112ZM157.129 19.829C157.129 22.0276 158.226 23.4985 160.16 23.4985C163.164 23.4985 164.884 19.0597 164.884 15.858C164.884 14.1064 164.125 12.2821 161.927 12.2821C158.73 12.2821 157.124 16.9183 157.129 19.829Z" fill="#FFDEDC"/>
<path d="M172.961 22.3497C174.032 22.885 176.049 23.6595 177.863 23.6491C179.422 23.6439 180.233 22.8798 180.233 21.939C180.233 21.019 179.625 20.3798 177.889 19.5274C175.721 18.4618 173.907 16.8662 173.907 14.5324C173.907 10.6342 177.333 8.05103 182.172 8.05103C184.365 8.05103 186.08 8.50321 187 9.02298L185.685 12.9368C184.895 12.5678 183.575 12.1156 181.927 12.1156C180.461 12.1156 179.484 12.7497 179.484 13.7632C179.484 14.548 180.248 15.1822 181.771 15.9254C183.819 16.9701 185.981 18.4514 185.981 21.0606C185.981 25.3642 182.327 27.6928 177.343 27.6928C174.968 27.6928 172.712 27.0379 171.605 26.2219L172.961 22.3497Z" fill="#FFDEDC"/>
<path d="M28 13.9089C27.8856 13.4359 27.6777 12.9837 27.3763 12.6095L20.0736 3.5604C19.8813 3.32131 18.7378 2.09467 18.7378 2.09467C18.4104 1.68925 17.7191 1.36182 17.2046 1.36182H15.4737H9.0443H2.40696C0.847674 1.36182 0.322716 2.39093 1.23749 3.65395L8.06195 12.3236C8.97153 13.5814 8.97153 15.6448 8.06195 16.9026L1.23749 25.5723C0.322716 26.8301 0.847674 27.8592 2.40696 27.8592H9.0443H9.43932H15.4737H17.2046C17.7243 27.8592 18.4208 27.537 18.7482 27.1367C18.7482 27.1367 19.9125 25.9257 20.1048 25.6866L27.3451 16.9858C28.0312 16.1542 28.2495 14.964 28 13.9089Z" fill="url(#paint0_linear_342_1766)"/>
<defs>
<linearGradient id="paint0_linear_342_1766" x1="28.0984" y1="14.6068" x2="0.785407" y2="14.6068" gradientUnits="userSpaceOnUse">
<stop offset="0.0531" stop-color="#B4EFE4"/>
<stop offset="0.1906" stop-color="#CEE9E1"/>
<stop offset="0.3444" stop-color="#E4E4DF"/>
<stop offset="0.5146" stop-color="#F3E1DD"/>
<stop offset="0.7119" stop-color="#FCDFDC"/>
<stop offset="1" stop-color="#FFDEDC"/>
</linearGradient>
</defs>
</svg>
