<svg width="195" height="40" viewBox="0 0 195 40" fill="none" xmlns="http://www.w3.org/2000/svg">
<g clip-path="url(#clip0_316_2177)">
<g opacity="0.7">
<g opacity="0.7">
<g opacity="0.7">
<path opacity="0.7" d="M30.5178 16.0388L23.3789 24.6607C23.1859 24.8938 22.0381 26.0954 22.0381 26.0954C21.7111 26.4894 21.0243 26.8112 20.5142 26.8112C21.0276 26.8112 21.7143 26.4894 22.0381 26.0954C22.0381 26.0954 23.1859 24.8938 23.3789 24.6607L30.521 16.0388C31.198 15.2213 31.404 14.0393 31.1555 12.9919H31.1522C31.4007 14.0393 31.1947 15.2213 30.5178 16.0388Z" fill="white"/>
</g>
</g>
</g>
<g opacity="0.7">
<g opacity="0.7">
<g opacity="0.7">
<path opacity="0.7" d="M30.5178 16.0388L23.3789 24.6607C23.1859 24.8938 22.0381 26.0954 22.0381 26.0954C21.7111 26.4894 21.0243 26.8112 20.5142 26.8112C21.0276 26.8112 21.7143 26.4894 22.0381 26.0954C22.0381 26.0954 23.1859 24.8938 23.3789 24.6607L30.521 16.0388C31.198 15.2213 31.404 14.0393 31.1555 12.9919H31.1522C31.4007 14.0393 31.1947 15.2213 30.5178 16.0388Z" fill="white"/>
</g>
</g>
</g>
<g opacity="0.5">
<g opacity="0.5">
<g opacity="0.5">
<path opacity="0.5" d="M18.8104 26.8112H20.5142C21.0276 26.8112 21.7111 26.4894 22.0381 26.0954C22.0381 26.0954 23.1827 24.8971 23.3789 24.6607L30.5178 16.0388C31.198 15.2213 31.4007 14.0393 31.1522 12.9919H23.5031C22.993 12.9919 22.3062 13.3137 21.9792 13.711C21.9792 13.711 20.8314 14.9094 20.6384 15.1458L13.4963 23.7643C12.8193 24.5851 12.6133 25.7606 12.8618 26.8112H18.8071H18.8104Z" fill="white"/>
</g>
</g>
</g>
<g opacity="0.5">
<g opacity="0.5">
<g opacity="0.5">
<path d="M4.76147 24.5425L11.4949 15.9535C12.3942 14.7058 12.3942 12.6669 11.4949 11.416L4.76147 2.83026C3.85889 1.58262 4.37885 0.561523 5.91259 0.561523H2.50175C0.968013 0.561523 0.448048 1.58262 1.35063 2.83026L8.08401 11.4193C8.98333 12.6702 8.98333 14.7091 8.08401 15.9567L1.34736 24.5425C0.448048 25.7901 0.964743 26.8079 2.49848 26.8079H5.91259C4.37558 26.8079 3.85889 25.7868 4.76147 24.5425Z" fill="white"/>
</g>
</g>
</g>
<g opacity="0.7">
<g opacity="0.7">
<path d="M13.4994 23.7643L20.6383 15.1458C20.8313 14.9094 21.9791 13.711 21.9791 13.711C22.3061 13.317 22.9896 12.992 23.503 12.992H31.1521C31.0409 12.5225 30.848 12.0759 30.5504 11.7049L23.3461 2.74161C23.1531 2.50522 22.0282 1.28712 22.0282 1.28712C21.7044 0.88985 21.0242 0.561523 20.5141 0.561523H5.91252C4.37552 0.561523 3.85882 1.58262 4.7614 2.83026L11.4948 11.4193C12.3941 12.6669 12.3941 14.7091 11.4948 15.9567L4.7614 24.5458C3.85882 25.7934 4.37879 26.8112 5.91252 26.8112H12.865C12.6165 25.7639 12.8192 24.5852 13.4994 23.7643Z" fill="white"/>
</g>
</g>
<g opacity="0.5">
<g opacity="0.5">
<g opacity="0.5">
<path d="M35.9365 28.3839C35.0372 27.1362 35.0372 25.0941 35.9365 23.8497L42.6699 15.2607C43.5725 14.013 43.0525 12.9919 41.5188 12.9919H38.1046C39.6384 12.9919 40.1583 14.013 39.259 15.2607L32.5224 23.8497C31.6263 25.0941 31.6263 27.1362 32.5224 28.3839L39.259 36.9729C40.1583 38.2205 39.6384 39.2384 38.1046 39.2384H41.5188C43.0525 39.2384 43.5725 38.2205 42.6699 36.9729L35.9365 28.3839Z" fill="white"/>
</g>
</g>
</g>
<g opacity="0.7">
<path opacity="0.7" d="M39.2589 36.9729L32.5223 28.3839C31.6262 27.1362 31.6262 25.0973 32.5223 23.8497L39.2589 15.2607C40.1583 14.013 39.6383 12.9919 38.1045 12.9919H31.1586C31.4071 14.0426 31.2011 15.2213 30.5242 16.0355L23.382 24.6574C23.1891 24.8938 22.0412 26.0922 22.0412 26.0922C21.7142 26.4862 21.0275 26.8079 20.5173 26.8079H12.865C12.9762 27.2774 13.1691 27.7239 13.4667 28.095L20.671 37.0615C20.8607 37.2979 21.9922 38.5128 21.9922 38.5128C22.3159 38.9133 22.9961 39.2384 23.5063 39.2384H38.1045C39.6383 39.2384 40.1583 38.2173 39.2589 36.9729Z" fill="white"/>
</g>
<path d="M18.8104 26.8112H20.5142C21.0276 26.8112 21.7111 26.4894 22.0381 26.0954C22.0381 26.0954 23.1827 24.8971 23.3789 24.6607L30.5178 16.0388C31.198 15.2213 31.4007 14.0393 31.1522 12.9919H23.5031C22.993 12.9919 22.3062 13.3137 21.9792 13.711C21.9792 13.711 20.8314 14.9094 20.6384 15.1458L13.4963 23.7643C12.8193 24.5851 12.6133 25.7606 12.8618 26.8112H18.8071H18.8104Z" fill="white"/>
<path d="M68.9394 7.11157L65.8196 23.5443C65.4403 25.5044 65.159 27.7173 65.0936 29.5527H60.9405L61.1596 27.0541H61.0942C59.7403 29.1094 57.8501 29.9007 56.0613 29.9007C53.4451 29.9007 51.2737 27.8158 51.2737 24.0565C51.2737 18.6818 55.1456 13.7503 60.9699 13.7503C61.5978 13.7503 62.4153 13.8455 63.0792 14.0984L64.4003 7.11486H68.9361L68.9394 7.11157ZM62.4186 17.7296C62.072 17.4473 61.3819 17.1945 60.6232 17.1945C57.9155 17.1945 55.9959 20.3563 55.9959 23.3276C55.9959 25.1925 56.8134 26.2366 58.1346 26.2366C59.4558 26.2366 61.032 24.8445 61.6337 21.906L62.4186 17.7329V17.7296Z" fill="white"/>
<path d="M81.0557 28.6694C79.2636 29.5854 77.0268 29.9006 75.3296 29.9006C70.9213 29.9006 68.655 27.3725 68.655 23.3571C68.655 18.6489 72.0528 13.7502 77.6285 13.7502C80.745 13.7502 82.9819 15.4871 82.9819 18.3665C82.9819 22.3163 79.1721 23.7379 73.0012 23.5836C73.0012 24.0269 73.1581 24.7196 73.4721 25.1629C74.0705 25.9541 75.1072 26.3645 76.4316 26.3645C78.0994 26.3645 79.5187 25.987 80.745 25.3861L81.059 28.6727L81.0557 28.6694ZM78.7273 18.3665C78.7273 17.6048 78.0994 17.0696 77.0595 17.0696C74.9502 17.0696 73.7533 18.8098 73.4394 20.2642C76.9647 20.2938 78.7273 19.7914 78.7273 18.3993V18.3665Z" fill="white"/>
<path d="M95.1305 29.0798C94.156 29.5526 92.583 29.9006 90.755 29.9006C86.9419 29.9006 84.2668 27.5629 84.2668 23.5475C84.2668 18.048 88.456 13.7502 94.3097 13.7502C95.6276 13.7502 96.7656 14.0063 97.423 14.2591L96.3242 17.7657C95.7911 17.5424 95.16 17.3848 94.2476 17.3848C91.0002 17.3848 89.0218 20.1329 89.0218 23.0419C89.0218 25.1596 90.3429 26.2332 92.0402 26.2332C93.3646 26.2332 94.3097 25.918 95.0978 25.6028L95.1273 29.0798H95.1305Z" fill="white"/>
<path d="M97.2366 29.5527L98.9731 20.353C99.4145 18.0153 99.6009 15.4248 99.7612 14.0951H103.695C103.6 15.1392 103.509 16.18 103.414 17.2569H103.509C104.578 15.2048 106.311 13.7471 108.421 13.7471C108.705 13.7471 108.983 13.7471 109.271 13.7799L108.385 18.2025C108.169 18.2025 107.914 18.1729 107.662 18.1729C104.768 18.1729 103.411 20.7634 102.842 23.7971L101.772 29.5494H97.2366V29.5527Z" fill="white"/>
<path d="M121.449 28.6694C119.657 29.5854 117.42 29.9006 115.72 29.9006C111.315 29.9006 109.049 27.3725 109.049 23.3571C109.049 18.6489 112.45 13.7502 118.022 13.7502C121.139 13.7502 123.372 15.4871 123.372 18.3665C123.372 22.3163 119.562 23.7379 113.391 23.5836C113.391 24.0269 113.552 24.7196 113.866 25.1629C114.464 25.9541 115.504 26.3645 116.825 26.3645C118.493 26.3645 119.909 25.987 121.139 25.3861L121.453 28.6727L121.449 28.6694ZM119.118 18.3665C119.118 17.6048 118.49 17.0696 117.453 17.0696C115.34 17.0696 114.147 18.8098 113.833 20.2642C117.358 20.2938 119.121 19.7914 119.121 18.3993V18.3665H119.118Z" fill="white"/>
<path d="M142.228 7.11157L139.115 23.5443C138.736 25.5044 138.451 27.7173 138.389 29.5527H134.233L134.455 27.0541H134.393C133.039 29.1094 131.149 29.9007 129.353 29.9007C126.741 29.9007 124.569 27.8158 124.569 24.0565C124.569 18.6818 128.441 13.7503 134.265 13.7503C134.893 13.7503 135.714 13.8455 136.371 14.0984L137.696 7.11486H142.228V7.11157ZM135.714 17.7296C135.364 17.4473 134.674 17.1945 133.919 17.1945C131.208 17.1945 129.288 20.3563 129.288 23.3276C129.288 25.1925 130.106 26.2366 131.43 26.2366C132.754 26.2366 134.324 24.8445 134.926 21.906L135.714 17.7329V17.7296Z" fill="white"/>
<path d="M141.473 29.5527L144.4 14.0984H148.936L146.009 29.5527H141.473ZM147.206 12.1711C145.973 12.1711 145.031 11.3142 145.031 9.95817C145.064 8.41175 146.257 7.36768 147.644 7.36768C149.03 7.36768 149.91 8.25416 149.91 9.61343C149.91 11.2255 148.68 12.1744 147.229 12.1744H147.202L147.206 12.1711Z" fill="white"/>
<path d="M158.19 9.89258L157.405 14.0952H160.679L160.015 17.5393H156.741L155.702 22.786C155.574 23.3868 155.45 24.2076 155.45 24.7461C155.45 25.5045 155.764 26.043 156.741 26.043C157.15 26.043 157.592 26.043 158.001 25.9806L157.467 29.5495C156.898 29.7727 155.764 29.8975 154.789 29.8975C152.081 29.8975 150.79 28.4759 150.79 26.5486C150.79 25.6949 150.888 24.8741 151.107 23.6757L152.304 17.5393H150.355L150.979 14.0952H152.964L153.527 11.1895L158.187 9.89258H158.19Z" fill="white"/>
<path d="M176.232 20.1035C176.232 25.7605 172.39 29.9007 167.039 29.9007C163.138 29.9007 160.525 27.3398 160.525 23.5148C160.525 18.1434 164.24 13.7471 169.718 13.7471C173.842 13.7471 176.232 16.5937 176.232 20.1002V20.1035ZM165.215 23.4196C165.215 25.2221 166.098 26.4205 167.667 26.4205C170.159 26.4205 171.543 22.7859 171.543 20.133C171.543 18.7114 170.944 17.1945 169.119 17.1945C166.506 17.1945 165.182 21.0195 165.215 23.4228" fill="white"/>
<path d="M177.835 25.4749C178.718 25.9181 180.385 26.5485 181.863 26.5485C183.155 26.5485 183.819 25.9181 183.819 25.1564C183.819 24.3947 183.312 23.8628 181.896 23.1668C180.101 22.2803 178.623 20.9867 178.623 19.0561C178.623 15.8681 181.425 13.7471 185.392 13.7471C187.187 13.7471 188.603 14.0951 189.359 14.5383L188.289 17.7625C187.629 17.4473 186.556 17.0664 185.202 17.0664C184.006 17.0664 183.188 17.6016 183.188 18.429C183.188 19.0561 183.816 19.5978 185.075 20.1987C186.739 21.049 188.505 22.2836 188.505 24.4308C188.505 27.9735 185.516 29.9336 181.451 29.9007C179.502 29.8383 177.645 29.3623 176.729 28.6695L177.831 25.4782L177.835 25.4749Z" fill="white"/>
<path d="M192.848 12.0134C194.048 12.0134 195 12.959 195 14.1278C195 15.2967 194.048 16.2521 192.838 16.2521C191.628 16.2521 190.647 15.3065 190.647 14.1278C190.647 12.9492 191.628 12.0134 192.838 12.0134H192.848ZM192.812 12.542C191.942 12.542 191.295 13.2447 191.295 14.1377C191.295 15.0307 191.942 15.7268 192.822 15.7268C193.705 15.7366 194.349 15.0143 194.349 14.1278C194.349 13.2414 193.702 12.542 192.822 12.542H192.809H192.812ZM192.57 15.1325H191.959V13.179C192.093 13.156 192.423 13.1068 192.815 13.1068C193.27 13.1068 193.45 13.1659 193.6 13.2644C193.721 13.3497 193.803 13.4975 193.803 13.6945C193.803 13.8915 193.636 14.0622 193.368 14.1344V14.1607C193.574 14.2198 193.698 14.3807 193.757 14.663C193.816 14.9454 193.865 15.057 193.891 15.1292H193.234C193.169 15.057 193.136 14.883 193.087 14.7123C193.051 14.5153 192.956 14.4168 192.753 14.4168H192.573V15.1292L192.57 15.1325ZM192.583 14.0129H192.75C192.982 14.0129 193.12 13.9144 193.12 13.7798C193.12 13.6189 192.982 13.5336 192.786 13.5336C192.701 13.5336 192.629 13.5467 192.58 13.5467V14.0129H192.583Z" fill="white"/>
</g>
<defs>
<clipPath id="clip0_316_2177">
<rect width="195" height="40" fill="white"/>
</clipPath>
</defs>
</svg>
