<svg width="18" height="18" viewBox="0 0 18 18" fill="none" xmlns="http://www.w3.org/2000/svg">
    <path d="M12.7828 11.2834C12.6018 11.102 12.3559 11 12.0996 11H11.8265C11.7517 11 11.6799 10.971 11.6262 10.9192C11.5161 10.813 11.5085 10.6397 11.6033 10.5197C12.4791 9.4107 13 8.01273 13 6.5C13 2.91 10.09 0 6.5 0C2.91 0 0 2.91 0 6.5C0 10.09 2.91 13 6.5 13C8.01273 13 9.4107 12.4791 10.5197 11.6033C10.6397 11.5085 10.813 11.5161 10.9192 11.6262C10.971 11.6799 11 11.7517 11 11.8265V12.0996C11 12.3559 11.102 12.6018 11.2834 12.7828L15.2543 16.7457C15.6662 17.1569 16.3334 17.1566 16.745 16.745C17.1566 16.3334 17.1569 15.6662 16.7457 15.2543L12.7828 11.2834ZM6.5 11C4.01 11 2 8.99 2 6.5C2 4.01 4.01 2 6.5 2C8.99 2 11 4.01 11 6.5C11 8.99 8.99 11 6.5 11Z" fill="#FFDEDC"/>
</svg>
