<svg width="17" height="17" viewBox="0 0 17 17" fill="none" xmlns="http://www.w3.org/2000/svg">
    <path d="M6 14.4333H6.1V14.3333V12.6667V12.5667H6H1.83333C1.31977 12.5667 0.9 12.9864 0.9 13.5C0.9 14.0136 1.31977 14.4333 1.83333 14.4333H6ZM9.33333 4.43333H9.43333V4.33333V2.66667V2.56667H9.33333H1.83333C1.31977 2.56667 0.9 2.98644 0.9 3.5C0.9 4.01356 1.31977 4.43333 1.83333 4.43333H9.33333ZM7.66667 7.56667H7.56667V7.66667V9.33333V9.43333H7.66667H15.1667C15.6802 9.43333 16.1 9.01356 16.1 8.5C16.1 7.98644 15.6802 7.56667 15.1667 7.56667H7.66667ZM9.43333 15.1667V14.4333H15.1667C15.6802 14.4333 16.1 14.0136 16.1 13.5C16.1 12.9864 15.6802 12.5667 15.1667 12.5667H9.43333V11.8333C9.43333 11.3198 9.01356 10.9 8.5 10.9C7.98644 10.9 7.56667 11.3198 7.56667 11.8333V15.1667C7.56667 15.6802 7.98644 16.1 8.5 16.1C9.01356 16.1 9.43333 15.6802 9.43333 15.1667ZM4.23333 6.83333V7.56667H1.83333C1.31977 7.56667 0.9 7.98644 0.9 8.5C0.9 9.01356 1.31977 9.43333 1.83333 9.43333H4.23333V10.1667C4.23333 10.6802 4.6531 11.1 5.16667 11.1C5.68023 11.1 6.1 10.6802 6.1 10.1667V6.83333C6.1 6.31977 5.68023 5.9 5.16667 5.9C4.6531 5.9 4.23333 6.31977 4.23333 6.83333ZM11.8333 6.1C12.3469 6.1 12.7667 5.68023 12.7667 5.16667V4.43333H15.1667C15.6802 4.43333 16.1 4.01356 16.1 3.5C16.1 2.98644 15.6802 2.56667 15.1667 2.56667H12.7667V1.83333C12.7667 1.31977 12.3469 0.9 11.8333 0.9C11.3198 0.9 10.9 1.31977 10.9 1.83333V5.16667C10.9 5.68023 11.3198 6.1 11.8333 6.1Z" fill="#616161" stroke="#616161" stroke-width="0.2"/>
</svg>
