<svg width="120" height="19" viewBox="0 0 120 19" fill="none" xmlns="http://www.w3.org/2000/svg">
<path d="M34.3306 1.67957L31.8319 14.8202C31.6108 16.0023 31.4199 17.3355 31.3529 18.4404H29.5643L29.8691 16.1837H29.8222C28.7838 17.8023 27.3503 18.7023 25.7157 18.7023C23.5218 18.7023 22.316 16.8923 22.316 14.5482C22.316 10.4882 25.3238 6.76726 29.36 6.76726C30.0734 6.76726 30.8773 6.92173 31.3696 7.15681L32.3912 1.68293H34.3306V1.67957ZM31.0548 8.8124C30.6595 8.54374 30.0098 8.32546 29.1925 8.32546C26.4593 8.32546 24.3357 11.2438 24.3357 14.2762C24.3357 15.6598 24.8047 17.0938 26.4828 17.0938C27.98 17.0938 29.8021 15.3743 30.2911 12.8053L31.0548 8.8124Z" fill="#FFDEDC"/>
<path d="M42.7914 17.7856C41.9306 18.2691 40.554 18.6889 39.0266 18.6889C36.002 18.6889 34.6957 16.6236 34.6957 14.0949C34.6957 10.6561 37.2414 6.76392 40.909 6.76392C43.0761 6.76392 44.2518 8.06018 44.2518 9.69227C44.2518 12.6911 40.8822 13.4803 36.6719 13.3997C36.5782 13.8934 36.6451 14.9579 36.903 15.5725C37.3619 16.6001 38.2663 17.1072 39.4353 17.1072C40.7884 17.1072 41.8033 16.7042 42.5034 16.3247L42.7914 17.7856ZM40.6344 8.28854C38.7754 8.28854 37.372 10.1087 36.8964 11.8953C39.9645 11.9322 42.366 11.5225 42.366 9.74265C42.366 8.80235 41.6493 8.28854 40.6344 8.28854Z" fill="#FFDEDC"/>
<path d="M58.0449 6.28369L56.5008 14.4811C56.1993 16.0191 56.0118 17.3523 55.851 18.4404H52.6991L52.9235 16.4624L52.8733 16.4523C51.6306 18.0341 50.1602 18.7124 48.6999 18.7124C46.7605 18.7124 45.5882 17.6076 45.5882 15.3139C45.5882 14.6456 45.6719 13.9135 45.8294 13.074L47.1156 6.28369H50.6827L49.4568 12.7919C49.353 13.3527 49.2726 13.9538 49.2726 14.3971C49.2726 15.1762 49.5908 15.8008 50.4952 15.8008C51.701 15.8008 52.9537 14.34 53.4159 11.9188L54.4777 6.28369H58.0449Z" fill="#FFDEDC"/>
<path d="M59.2305 15.2434C59.9205 15.5893 61.2201 16.0897 62.3891 16.083C63.3939 16.0796 63.9165 15.5859 63.9165 14.9781C63.9165 14.3837 63.5246 13.9707 62.4058 13.4199C61.0091 12.7315 59.8401 11.7005 59.8401 10.1927C59.8401 7.674 62.0474 6.00497 65.1658 6.00497C66.5793 6.00497 67.6846 6.29714 68.2775 6.63296L67.43 9.1617C66.9209 8.92327 66.0702 8.6311 65.0084 8.6311C64.0638 8.6311 63.4341 9.04079 63.4341 9.69564C63.4341 10.2027 63.9265 10.6124 64.9079 11.0927C66.2276 11.7677 67.621 12.7247 67.621 14.4106C67.621 17.1912 65.2663 18.6956 62.0541 18.6956C60.5234 18.6956 59.0698 18.2725 58.3563 17.7453L59.2305 15.2434Z" fill="#FFDEDC"/>
<path d="M76.9894 18.4404C77.0162 17.7318 77.0832 16.899 77.1469 16.0326H77.0866C75.9745 18.0508 74.4204 18.7124 73.0103 18.7124C70.8398 18.7124 69.3426 17.0199 69.3426 14.4811C69.3426 10.3874 72.059 6.0083 78.0211 6.0083C79.4647 6.0083 81.0155 6.29375 82.027 6.6195L80.7509 12.9732C80.4528 14.5382 80.2217 16.9225 80.2652 18.437H76.9894V18.4404ZM78.0211 8.82919C77.7498 8.76538 77.4048 8.72508 77.0464 8.72508C74.7386 8.72508 73.0605 11.5561 73.0572 13.8161C73.0538 15.0117 73.5395 15.8311 74.5209 15.8311C75.586 15.8311 76.9057 14.612 77.4584 11.6367L78.0211 8.82919Z" fill="#FFDEDC"/>
<path d="M96.9926 0.806462L94.5374 13.7255C94.2427 15.277 94.0317 17.0065 93.9647 18.4404H90.6989L90.8731 16.4691H90.8229C89.7611 18.0844 88.2739 18.7124 86.8537 18.7124C84.7938 18.7124 83.1057 17.0837 83.1057 14.1285C83.1057 9.90049 86.1403 6.00833 90.7257 6.00833C91.2215 6.00833 91.8612 6.099 92.377 6.30049L93.4355 0.803101H96.9926V0.806462ZM91.8813 9.16169C91.5865 8.92326 91.0573 8.73855 90.4678 8.73855C88.3309 8.73855 86.8236 11.2102 86.8236 13.5442C86.8236 15.0117 87.4567 15.8345 88.4916 15.8345C89.5199 15.8345 90.7793 14.7464 91.2449 12.4225L91.8813 9.16169Z" fill="#FFDEDC"/>
<path d="M109.439 11.0187C109.439 15.4516 106.398 18.7124 102.204 18.7124C99.1194 18.7124 97.0595 16.7109 97.0595 13.6852C97.0595 9.48404 99.9936 6.0083 104.298 6.0083C107.557 6.0083 109.439 8.24486 109.439 11.0187ZM100.751 13.6146C100.751 15.0352 101.457 15.9855 102.703 15.9855C104.639 15.9855 105.748 13.1176 105.748 11.049C105.748 9.91726 105.259 8.73853 103.842 8.73853C101.782 8.73853 100.747 11.734 100.751 13.6146Z" fill="#FFDEDC"/>
<path d="M110.953 15.2434C111.643 15.5893 112.943 16.0897 114.112 16.083C115.116 16.0796 115.639 15.5859 115.639 14.9781C115.639 14.3837 115.247 13.9707 114.128 13.4199C112.732 12.7315 111.563 11.7005 111.563 10.1927C111.563 7.674 113.77 6.00497 116.888 6.00497C118.302 6.00497 119.407 6.29714 120 6.63296L119.153 9.1617C118.643 8.92327 117.793 8.6311 116.731 8.6311C115.786 8.6311 115.157 9.04079 115.157 9.69564C115.157 10.2027 115.649 10.6124 116.63 11.0927C117.95 11.7677 119.344 12.7247 119.344 14.4106C119.344 17.1912 116.989 18.6956 113.777 18.6956C112.246 18.6956 110.792 18.2725 110.079 17.7453L110.953 15.2434Z" fill="#FFDEDC"/>
<path d="M17.5363 9.78965C17.4627 9.48405 17.3287 9.19189 17.1344 8.9501L12.4284 3.10344C12.3045 2.94896 11.5676 2.15642 11.5676 2.15642C11.3566 1.89448 10.9111 1.68292 10.5795 1.68292H9.46412H5.32082H1.04355C0.038705 1.68292 -0.299592 2.34784 0.289915 3.16388L4.68777 8.76538C5.27392 9.57806 5.27392 10.9113 4.68777 11.724L0.289915 17.3255C-0.299592 18.1382 0.038705 18.8031 1.04355 18.8031H5.32082H5.57538H9.46412H10.5795C10.9144 18.8031 11.3633 18.5949 11.5743 18.3363C11.5743 18.3363 12.3246 17.5538 12.4485 17.3993L17.1143 11.7777C17.5564 11.2404 17.6971 10.4714 17.5363 9.78965Z" fill="url(#paint0_linear_342_1636)"/>
<defs>
<linearGradient id="paint0_linear_342_1636" x1="17.5997" y1="10.2406" x2="-0.00142155" y2="10.2406" gradientUnits="userSpaceOnUse">
<stop offset="0.0531" stop-color="#B4EFE4"/>
<stop offset="0.1906" stop-color="#CEE9E1"/>
<stop offset="0.3444" stop-color="#E4E4DF"/>
<stop offset="0.5146" stop-color="#F3E1DD"/>
<stop offset="0.7119" stop-color="#FCDFDC"/>
<stop offset="1" stop-color="#FFDEDC"/>
</linearGradient>
</defs>
</svg>
