<svg width="315" height="77" viewBox="0 0 315 77" fill="none" xmlns="http://www.w3.org/2000/svg">
<path fill-rule="evenodd" clip-rule="evenodd" d="M218.953 0H0V77H218.953H239.748H243.75H274.263H283.082C284.603 77 286.64 76.0646 287.613 74.8879C287.613 74.8879 291.019 71.3578 291.597 70.6638L312.792 45.3793C314.799 42.9957 315.438 39.5259 314.708 36.4483V36.4784C314.374 35.0905 313.765 33.7931 312.883 32.7069L291.506 6.39655C290.928 5.70258 287.583 2.14224 287.583 2.14224C286.64 0.965514 284.603 0 283.082 0H274.263H243.75H239.748H218.953Z" fill="white"/>
<path d="M105.315 24.31L101.549 43.9C101.216 45.66 100.923 47.65 100.822 49.29H98.1261L98.5804 45.92H98.5098C96.9449 48.33 94.7843 49.67 92.3107 49.67C88.9992 49.67 87.1819 46.97 87.1819 43.48C87.1819 37.43 91.7251 31.88 97.8131 31.88C98.8934 31.88 100.105 32.11 100.852 32.46L102.397 24.3H105.325L105.315 24.31ZM100.367 34.94C99.7718 34.54 98.7925 34.22 97.5607 34.22C93.4415 34.22 90.2309 38.57 90.2309 43.09C90.2309 45.15 90.9377 47.29 93.4718 47.29C95.7333 47.29 98.4795 44.73 99.2165 40.9L100.367 34.95V34.94Z" fill="#0A3066"/>
<path d="M118.086 48.32C116.784 49.04 114.714 49.67 112.402 49.67C107.839 49.67 105.87 46.59 105.87 42.82C105.87 37.7 109.717 31.89 115.239 31.89C118.51 31.89 120.277 33.82 120.287 36.26C120.287 40.73 115.199 41.91 108.848 41.79C108.707 42.53 108.808 44.12 109.192 45.03C109.878 46.56 111.251 47.32 113.018 47.32C115.057 47.32 116.592 46.72 117.642 46.15L118.076 48.33L118.086 48.32ZM114.825 34.16C112.018 34.16 109.898 36.87 109.181 39.54C113.816 39.59 117.44 38.98 117.44 36.33C117.44 34.93 116.36 34.16 114.825 34.16Z" fill="#0A3066"/>
<path d="M141.095 31.17L138.763 43.39C138.309 45.68 138.026 47.67 137.784 49.29H133.029L133.362 46.34H133.291C131.413 48.69 129.192 49.69 126.991 49.69C124.063 49.69 122.296 48.04 122.296 44.62C122.296 43.62 122.418 42.53 122.66 41.28L124.598 31.16H129.98L128.132 40.86C127.981 41.7 127.859 42.59 127.859 43.26C127.859 44.42 128.344 45.35 129.707 45.35C131.524 45.35 133.422 43.17 134.119 39.56L135.724 31.16H141.106L141.095 31.17Z" fill="#0A3066"/>
<path d="M142.882 44.53C143.922 45.04 145.881 45.79 147.648 45.78C149.162 45.78 149.95 45.04 149.95 44.13C149.95 43.22 149.364 42.63 147.668 41.81C145.558 40.79 143.801 39.25 143.801 37C143.801 33.25 147.133 30.76 151.838 30.76C153.968 30.76 155.644 31.2 156.532 31.69L155.25 35.46C154.483 35.11 153.201 34.67 151.595 34.67C150.172 34.67 149.223 35.28 149.223 36.26C149.223 37.01 149.97 37.63 151.444 38.34C153.433 39.35 155.533 40.77 155.533 43.29C155.533 47.44 151.979 49.68 147.133 49.68C144.821 49.68 142.63 49.05 141.55 48.26L142.862 44.52L142.882 44.53Z" fill="#0A3066"/>
<path d="M169.688 49.29C169.728 48.23 169.829 46.99 169.93 45.7H169.839C168.163 48.71 165.811 49.7 163.69 49.7C160.409 49.7 158.158 47.17 158.158 43.39C158.158 37.29 162.257 30.76 171.252 30.76C173.433 30.76 175.776 31.18 177.3 31.67L175.372 41.14C174.927 43.47 174.574 47.03 174.635 49.29H169.688ZM171.252 34.97C170.838 34.88 170.324 34.82 169.778 34.82C166.295 34.82 163.761 39.04 163.761 42.41C163.761 44.19 164.488 45.41 165.972 45.41C167.577 45.41 169.576 43.59 170.404 39.16L171.252 34.98V34.97Z" fill="#0A3066"/>
<path d="M199.865 23L196.16 42.26C195.715 44.57 195.392 47.15 195.302 49.29H190.375L190.637 46.35H190.566C188.961 48.76 186.72 49.69 184.579 49.69C181.47 49.69 178.926 47.26 178.926 42.86C178.926 36.56 183.509 30.76 190.425 30.76C191.172 30.76 192.141 30.9 192.919 31.2L194.514 23H199.875H199.865ZM192.152 35.46C191.707 35.11 190.91 34.83 190.021 34.83C186.801 34.83 184.519 38.51 184.519 41.99C184.519 44.18 185.478 45.4 187.033 45.4C188.588 45.4 190.486 43.78 191.192 40.31L192.152 35.45V35.46Z" fill="#0A3066"/>
<path d="M218.654 38.23C218.654 44.84 214.06 49.7 207.73 49.7C203.076 49.7 199.966 46.72 199.966 42.21C199.966 35.95 204.398 30.77 210.89 30.77C215.807 30.77 218.654 34.1 218.654 38.24V38.23ZM205.549 42.1C205.549 44.22 206.619 45.63 208.497 45.63C211.415 45.63 213.091 41.35 213.091 38.27C213.091 36.59 212.354 34.83 210.214 34.83C207.104 34.83 205.549 39.3 205.549 42.1Z" fill="#0A3066"/>
<path d="M220.936 44.53C221.976 45.04 223.934 45.79 225.701 45.78C227.216 45.78 228.003 45.04 228.003 44.13C228.003 43.22 227.417 42.63 225.721 41.81C223.611 40.79 221.854 39.25 221.854 37C221.854 33.25 225.186 30.76 229.891 30.76C232.021 30.76 233.697 31.2 234.586 31.69L233.304 35.46C232.536 35.11 231.254 34.67 229.649 34.67C228.225 34.67 227.276 35.28 227.276 36.26C227.276 37.01 228.023 37.63 229.497 38.34C231.486 39.35 233.586 40.77 233.586 43.29C233.586 47.44 230.032 49.68 225.186 49.68C222.874 49.68 220.683 49.05 219.603 48.26L220.916 44.52L220.936 44.53Z" fill="#0A3066"/>
<path d="M79.9733 36.39C79.8622 35.93 79.6603 35.5 79.3675 35.14L72.2699 26.42C72.0781 26.19 70.9675 25.01 70.9675 25.01C70.6545 24.62 69.9781 24.3 69.4733 24.3H55.0863C53.5718 24.3 53.0569 25.29 53.9454 26.51L60.5786 34.86C61.467 36.07 61.467 38.06 60.5786 39.27L53.9454 47.62C53.0569 48.83 53.5718 49.82 55.0863 49.82H69.4733C69.9781 49.82 70.6545 49.51 70.9776 49.12C70.9776 49.12 72.1084 47.95 72.3002 47.72L79.3372 39.34C80.0036 38.55 80.2156 37.4 79.9733 36.38V36.39Z" fill="url(#paint0_linear_92_2)"/>
<defs>
<linearGradient id="paint0_linear_92_2" x1="53.5113" y1="37.07" x2="80.0641" y2="37.07" gradientUnits="userSpaceOnUse">
<stop stop-color="#0A3066"/>
<stop offset="0.26" stop-color="#0C3267"/>
<stop offset="0.41" stop-color="#133A6D"/>
<stop offset="0.53" stop-color="#1F4876"/>
<stop offset="0.64" stop-color="#315C83"/>
<stop offset="0.73" stop-color="#487694"/>
<stop offset="0.82" stop-color="#6596A9"/>
<stop offset="0.91" stop-color="#86BCC2"/>
<stop offset="0.99" stop-color="#ACE6DE"/>
<stop offset="1" stop-color="#B4EFE4"/>
</linearGradient>
</defs>
</svg>
