<svg width="19" height="12" viewBox="0 0 19 12" fill="none" xmlns="http://www.w3.org/2000/svg">
    <path fill-rule="evenodd" clip-rule="evenodd" d="M5.12153 11.1827L4.4 11.9346L3.67848 11.1827L0.278474 7.63964C-0.10392 7.24115 -0.0908739 6.60812 0.307614 6.22573C0.706102 5.84333 1.33913 5.85638 1.72153 6.25487L3.40003 8.00401L3.40002 1.0421C3.40002 0.489813 3.84774 0.0420977 4.40002 0.0420976C4.95231 0.0420976 5.40002 0.489812 5.40002 1.0421L5.40003 8.00396L7.07848 6.25487C7.46087 5.85638 8.0939 5.84333 8.49239 6.22573C8.89088 6.60812 8.90393 7.24115 8.52153 7.63964L5.12153 11.1827Z" fill="#616161"/>
    <path fill-rule="evenodd" clip-rule="evenodd" d="M13.3497 0.817262L14.0712 0.0653687L14.7927 0.817262L18.1927 4.36036C18.5751 4.75885 18.5621 5.39188 18.1636 5.77427C17.7651 6.15667 17.1321 6.14362 16.7497 5.74513L15.0712 3.99599V10.9579C15.0712 11.5102 14.6235 11.9579 14.0712 11.9579C13.5189 11.9579 13.0712 11.5102 13.0712 10.9579V3.99604L11.3927 5.74513C11.0103 6.14362 10.3773 6.15667 9.9788 5.77427C9.58031 5.39188 9.56726 4.75885 9.94966 4.36036L13.3497 0.817262Z" fill="#616161"/>
</svg>