<svg width="38" height="39" viewBox="0 0 38 39" fill="none" xmlns="http://www.w3.org/2000/svg">
<path fill-rule="evenodd" clip-rule="evenodd" d="M26.6656 15.292C26.6656 21.5928 21.6616 26.584 15.6314 26.584C9.60119 26.584 4.59717 21.5928 4.59717 15.292C4.59717 8.99121 9.60119 4 15.6314 4C21.6616 4 26.6656 8.99121 26.6656 15.292ZM23.691 28.2032C21.3616 29.7107 18.5968 30.584 15.6314 30.584C7.32821 30.584 0.597168 23.7375 0.597168 15.292C0.597168 6.84646 7.32821 0 15.6314 0C23.9345 0 30.6656 6.84646 30.6656 15.292C30.6656 19.6257 28.8933 23.5383 26.0456 26.3209L35.5671 36.0448L33.4682 38.1884L23.691 28.2032Z" fill="#0A3066"/>
</svg>
